<mxfile host="app.diagrams.net" agent="Mozilla/5.0 (Windows NT 10.0; Win64; x64) AppleWebKit/537.36 (KHTML, like Gecko) Chrome/130.0.0.0 Safari/537.36 Edg/130.0.0.0" version="24.8.4">
  <diagram name="第 1 页" id="gEOt0XPJ3LvUmvyGPniG">
    <mxGraphModel dx="1469" dy="933" grid="1" gridSize="10" guides="1" tooltips="1" connect="1" arrows="1" fold="1" page="1" pageScale="1" pageWidth="413" pageHeight="291" math="0" shadow="0">
      <root>
        <mxCell id="0" />
        <mxCell id="1" parent="0" />
        <mxCell id="vlofUZYDkbNJWHW3qK4C-2" value="" style="rounded=1;whiteSpace=wrap;html=1;fillColor=#fff2cc;strokeColor=#d6b656;" parent="1" vertex="1">
          <mxGeometry x="316.7" y="244.75" width="216.61" height="92" as="geometry" />
        </mxCell>
        <mxCell id="XGQdO2VJRoyWXTCaJZEM-241" value="" style="rounded=1;whiteSpace=wrap;html=1;align=center;verticalAlign=middle;fontFamily=Helvetica;fontSize=12;resizable=1;shadow=0;glass=0;arcSize=4;dashed=1;strokeWidth=2;strokeColor=#d79b00;fillColor=#ffe6cc;opacity=40;" parent="1" vertex="1">
          <mxGeometry x="226" y="-22" width="400" height="440" as="geometry" />
        </mxCell>
        <mxCell id="XGQdO2VJRoyWXTCaJZEM-2" value="" style="rounded=1;whiteSpace=wrap;html=1;align=center;verticalAlign=middle;fontFamily=Helvetica;fontSize=12;resizable=1;shadow=0;glass=0;arcSize=4;dashed=1;strokeWidth=2;fillColor=#dae8fc;strokeColor=#6c8ebf;opacity=60;" parent="1" vertex="1">
          <mxGeometry x="-118.5" y="-22" width="308.5" height="440" as="geometry" />
        </mxCell>
        <mxCell id="XGQdO2VJRoyWXTCaJZEM-8" style="edgeStyle=orthogonalEdgeStyle;rounded=0;orthogonalLoop=1;jettySize=auto;html=1;exitX=0.5;exitY=0;exitDx=0;exitDy=0;entryX=0.5;entryY=1;entryDx=0;entryDy=0;" parent="1" source="XGQdO2VJRoyWXTCaJZEM-9" target="XGQdO2VJRoyWXTCaJZEM-11" edge="1">
          <mxGeometry relative="1" as="geometry" />
        </mxCell>
        <mxCell id="XGQdO2VJRoyWXTCaJZEM-135" style="edgeStyle=orthogonalEdgeStyle;rounded=1;orthogonalLoop=1;jettySize=auto;html=1;entryX=0.75;entryY=1;entryDx=0;entryDy=0;fontFamily=Helvetica;fontSize=12;fontColor=default;resizable=1;curved=0;strokeColor=default;" parent="1" target="XGQdO2VJRoyWXTCaJZEM-30" edge="1">
          <mxGeometry relative="1" as="geometry">
            <mxPoint x="100" y="331" as="sourcePoint" />
            <Array as="points">
              <mxPoint x="100" y="331" />
              <mxPoint x="-12" y="331" />
            </Array>
          </mxGeometry>
        </mxCell>
        <mxCell id="XGQdO2VJRoyWXTCaJZEM-145" style="edgeStyle=orthogonalEdgeStyle;rounded=0;orthogonalLoop=1;jettySize=auto;html=1;exitX=1;exitY=0.5;exitDx=0;exitDy=0;entryX=0;entryY=0.5;entryDx=0;entryDy=0;fontFamily=Helvetica;fontSize=12;fontColor=default;resizable=1;" parent="1" source="XGQdO2VJRoyWXTCaJZEM-9" target="XGQdO2VJRoyWXTCaJZEM-144" edge="1">
          <mxGeometry relative="1" as="geometry" />
        </mxCell>
        <mxCell id="XGQdO2VJRoyWXTCaJZEM-9" value="MLP" style="rounded=1;whiteSpace=wrap;html=1;fillColor=#ffffd9;" parent="1" vertex="1">
          <mxGeometry x="70" y="356" width="60" height="30" as="geometry" />
        </mxCell>
        <mxCell id="XGQdO2VJRoyWXTCaJZEM-10" style="edgeStyle=orthogonalEdgeStyle;rounded=0;orthogonalLoop=1;jettySize=auto;html=1;exitX=0.5;exitY=0;exitDx=0;exitDy=0;entryX=0.5;entryY=1;entryDx=0;entryDy=0;" parent="1" source="XGQdO2VJRoyWXTCaJZEM-11" target="XGQdO2VJRoyWXTCaJZEM-16" edge="1">
          <mxGeometry relative="1" as="geometry">
            <mxPoint x="100" y="281" as="targetPoint" />
          </mxGeometry>
        </mxCell>
        <mxCell id="XGQdO2VJRoyWXTCaJZEM-11" value="GRU" style="rounded=1;whiteSpace=wrap;html=1;fillColor=#bfd9ea;strokeColor=#1a7bb7;" parent="1" vertex="1">
          <mxGeometry x="70.4" y="258.25" width="60" height="30" as="geometry" />
        </mxCell>
        <mxCell id="XGQdO2VJRoyWXTCaJZEM-12" value="" style="endArrow=classic;html=1;rounded=0;entryX=0.5;entryY=1;entryDx=0;entryDy=0;" parent="1" source="XGQdO2VJRoyWXTCaJZEM-14" target="XGQdO2VJRoyWXTCaJZEM-9" edge="1">
          <mxGeometry width="50" height="50" relative="1" as="geometry">
            <mxPoint x="100" y="481" as="sourcePoint" />
            <mxPoint x="150" y="431" as="targetPoint" />
            <Array as="points">
              <mxPoint x="100" y="421" />
            </Array>
          </mxGeometry>
        </mxCell>
        <mxCell id="XGQdO2VJRoyWXTCaJZEM-14" value="o&lt;sub&gt;i&lt;/sub&gt;&lt;sup&gt;t&lt;/sup&gt;,a&lt;sub&gt;i&lt;/sub&gt;&lt;sup&gt;t-1&lt;/sup&gt;" style="text;html=1;align=center;verticalAlign=middle;whiteSpace=wrap;rounded=1;fillColor=none;strokeColor=#9673a6;" parent="1" vertex="1">
          <mxGeometry x="65" y="442" width="70" height="30" as="geometry" />
        </mxCell>
        <mxCell id="XGQdO2VJRoyWXTCaJZEM-15" style="edgeStyle=orthogonalEdgeStyle;rounded=0;orthogonalLoop=1;jettySize=auto;html=1;exitX=0.5;exitY=0;exitDx=0;exitDy=0;entryX=0.5;entryY=1;entryDx=0;entryDy=0;fontFamily=Helvetica;fontSize=12;fontColor=default;resizable=1;" parent="1" source="XGQdO2VJRoyWXTCaJZEM-16" edge="1">
          <mxGeometry relative="1" as="geometry">
            <mxPoint x="100" y="89" as="targetPoint" />
          </mxGeometry>
        </mxCell>
        <mxCell id="XGQdO2VJRoyWXTCaJZEM-16" value="MLP" style="rounded=1;whiteSpace=wrap;html=1;fillColor=#ffffd9;" parent="1" vertex="1">
          <mxGeometry x="70.4" y="132.25" width="60" height="30" as="geometry" />
        </mxCell>
        <mxCell id="XGQdO2VJRoyWXTCaJZEM-17" style="edgeStyle=orthogonalEdgeStyle;rounded=0;orthogonalLoop=1;jettySize=auto;html=1;exitX=0.5;exitY=0;exitDx=0;exitDy=0;" parent="1" source="XGQdO2VJRoyWXTCaJZEM-18" target="XGQdO2VJRoyWXTCaJZEM-19" edge="1">
          <mxGeometry relative="1" as="geometry" />
        </mxCell>
        <mxCell id="XGQdO2VJRoyWXTCaJZEM-18" value="Mixing Network" style="rounded=1;whiteSpace=wrap;html=1;fillColor=#e1d5e7;strokeColor=#9673a6;" parent="1" vertex="1">
          <mxGeometry x="374" y="-107" width="120" height="40" as="geometry" />
        </mxCell>
        <mxCell id="XGQdO2VJRoyWXTCaJZEM-285" style="edgeStyle=orthogonalEdgeStyle;rounded=0;orthogonalLoop=1;jettySize=auto;html=1;exitX=1;exitY=0.5;exitDx=0;exitDy=0;entryX=0;entryY=0.5;entryDx=0;entryDy=0;fontFamily=Helvetica;fontSize=12;fontColor=default;resizable=1;dashed=1;endArrow=none;endFill=0;fillColor=#e51400;strokeColor=#B20000;" parent="1" source="XGQdO2VJRoyWXTCaJZEM-19" target="XGQdO2VJRoyWXTCaJZEM-284" edge="1">
          <mxGeometry relative="1" as="geometry" />
        </mxCell>
        <mxCell id="XGQdO2VJRoyWXTCaJZEM-19" value="Qtot(o,a)" style="rounded=1;whiteSpace=wrap;html=1;fillColor=#e1d5e7;strokeColor=#9673a6;" parent="1" vertex="1">
          <mxGeometry x="389" y="-182" width="90" height="30" as="geometry" />
        </mxCell>
        <mxCell id="XGQdO2VJRoyWXTCaJZEM-20" value="" style="endArrow=classic;html=1;rounded=0;entryX=0;entryY=0.5;entryDx=0;entryDy=0;exitX=1;exitY=0.5;exitDx=0;exitDy=0;" parent="1" target="XGQdO2VJRoyWXTCaJZEM-11" edge="1">
          <mxGeometry width="50" height="50" relative="1" as="geometry">
            <mxPoint x="50.400000000000006" y="273.25" as="sourcePoint" />
            <mxPoint x="70.4" y="273.25" as="targetPoint" />
            <Array as="points">
              <mxPoint x="30.400000000000006" y="273.25" />
              <mxPoint x="50.400000000000006" y="273.25" />
            </Array>
          </mxGeometry>
        </mxCell>
        <mxCell id="XGQdO2VJRoyWXTCaJZEM-142" style="edgeStyle=orthogonalEdgeStyle;rounded=1;orthogonalLoop=1;jettySize=auto;html=1;exitX=0.5;exitY=0;exitDx=0;exitDy=0;entryX=0;entryY=0.5;entryDx=0;entryDy=0;fontFamily=Helvetica;fontSize=12;fontColor=default;resizable=1;curved=0;" parent="1" source="XGQdO2VJRoyWXTCaJZEM-30" target="XGQdO2VJRoyWXTCaJZEM-115" edge="1">
          <mxGeometry relative="1" as="geometry" />
        </mxCell>
        <mxCell id="XGQdO2VJRoyWXTCaJZEM-289" style="edgeStyle=orthogonalEdgeStyle;rounded=0;orthogonalLoop=1;jettySize=auto;html=1;exitX=0.5;exitY=1;exitDx=0;exitDy=0;entryX=0.25;entryY=0;entryDx=0;entryDy=0;fontFamily=Helvetica;fontSize=12;fontColor=default;resizable=1;fillColor=#e51400;strokeColor=#B20000;dashed=1;endArrow=none;endFill=0;" parent="1" source="XGQdO2VJRoyWXTCaJZEM-30" target="XGQdO2VJRoyWXTCaJZEM-288" edge="1">
          <mxGeometry relative="1" as="geometry" />
        </mxCell>
        <mxCell id="XGQdO2VJRoyWXTCaJZEM-30" value="Message&lt;br&gt;Receving&lt;br&gt;Module" style="rounded=1;whiteSpace=wrap;html=1;fillColor=#dce1f4;strokeColor=#8c9be6;" parent="1" vertex="1">
          <mxGeometry x="-80" y="232.75" width="90" height="50" as="geometry" />
        </mxCell>
        <mxCell id="XGQdO2VJRoyWXTCaJZEM-31" value="Q&lt;sup&gt;i&lt;/sup&gt;&lt;sub&gt;c&lt;/sub&gt;" style="text;html=1;align=center;verticalAlign=middle;whiteSpace=wrap;rounded=0;" parent="1" vertex="1">
          <mxGeometry x="10" y="54" width="60" height="30" as="geometry" />
        </mxCell>
        <mxCell id="XGQdO2VJRoyWXTCaJZEM-33" style="edgeStyle=orthogonalEdgeStyle;rounded=0;orthogonalLoop=1;jettySize=auto;html=1;exitX=0.5;exitY=0;exitDx=0;exitDy=0;entryX=0.5;entryY=1;entryDx=0;entryDy=0;fontFamily=Helvetica;fontSize=12;fontColor=default;resizable=1;" parent="1" source="XGQdO2VJRoyWXTCaJZEM-16" target="XGQdO2VJRoyWXTCaJZEM-94" edge="1">
          <mxGeometry relative="1" as="geometry">
            <mxPoint x="100" y="136" as="sourcePoint" />
          </mxGeometry>
        </mxCell>
        <mxCell id="XGQdO2VJRoyWXTCaJZEM-34" value="Q&lt;sup&gt;i&lt;/sup&gt;&lt;sub&gt;l&lt;/sub&gt;" style="text;html=1;align=center;verticalAlign=middle;whiteSpace=wrap;rounded=0;" parent="1" vertex="1">
          <mxGeometry x="75" y="102.25" width="25" height="30" as="geometry" />
        </mxCell>
        <mxCell id="XGQdO2VJRoyWXTCaJZEM-138" style="edgeStyle=orthogonalEdgeStyle;rounded=0;orthogonalLoop=1;jettySize=auto;html=1;exitX=0.5;exitY=0;exitDx=0;exitDy=0;entryX=0.25;entryY=1;entryDx=0;entryDy=0;fontFamily=Helvetica;fontSize=12;fontColor=default;resizable=1;" parent="1" source="XGQdO2VJRoyWXTCaJZEM-36" target="XGQdO2VJRoyWXTCaJZEM-30" edge="1">
          <mxGeometry relative="1" as="geometry" />
        </mxCell>
        <mxCell id="XGQdO2VJRoyWXTCaJZEM-36" value="z&lt;sub&gt;i-&lt;/sub&gt;" style="text;html=1;align=center;verticalAlign=middle;whiteSpace=wrap;rounded=1;fillColor=none;strokeColor=#9673a6;" parent="1" vertex="1">
          <mxGeometry x="-83" y="441" width="51" height="31" as="geometry" />
        </mxCell>
        <mxCell id="XGQdO2VJRoyWXTCaJZEM-38" value="Inference" style="text;html=1;align=center;verticalAlign=middle;whiteSpace=wrap;rounded=0;" parent="1" vertex="1">
          <mxGeometry x="-180" y="236.99" width="50" height="20" as="geometry" />
        </mxCell>
        <mxCell id="XGQdO2VJRoyWXTCaJZEM-84" value="Agent i" style="text;html=1;align=center;verticalAlign=middle;whiteSpace=wrap;rounded=0;fontFamily=Helvetica;fontSize=12;fontColor=default;resizable=1;" parent="1" vertex="1">
          <mxGeometry x="-110.00000000000003" y="-12" width="60" height="30" as="geometry" />
        </mxCell>
        <mxCell id="XGQdO2VJRoyWXTCaJZEM-93" style="edgeStyle=orthogonalEdgeStyle;rounded=1;orthogonalLoop=1;jettySize=auto;html=1;exitX=0.5;exitY=0;exitDx=0;exitDy=0;entryX=0;entryY=0.5;entryDx=0;entryDy=0;fontFamily=Helvetica;fontSize=12;fontColor=default;resizable=1;curved=0;" parent="1" source="XGQdO2VJRoyWXTCaJZEM-94" target="XGQdO2VJRoyWXTCaJZEM-18" edge="1">
          <mxGeometry relative="1" as="geometry" />
        </mxCell>
        <mxCell id="XGQdO2VJRoyWXTCaJZEM-196" style="edgeStyle=orthogonalEdgeStyle;rounded=0;orthogonalLoop=1;jettySize=auto;html=1;exitX=1;exitY=0.5;exitDx=0;exitDy=0;entryX=0;entryY=0.5;entryDx=0;entryDy=0;fontFamily=Helvetica;fontSize=12;fontColor=default;resizable=1;" parent="1" source="XGQdO2VJRoyWXTCaJZEM-94" target="XGQdO2VJRoyWXTCaJZEM-183" edge="1">
          <mxGeometry relative="1" as="geometry" />
        </mxCell>
        <mxCell id="XGQdO2VJRoyWXTCaJZEM-94" value="Q&lt;sub&gt;i&lt;/sub&gt;" style="rounded=1;whiteSpace=wrap;html=1;strokeColor=#9673a6;align=center;verticalAlign=middle;fontFamily=Helvetica;fontSize=12;fontColor=default;resizable=1;fillColor=default;" parent="1" vertex="1">
          <mxGeometry x="75" y="-7" width="50" height="35" as="geometry" />
        </mxCell>
        <mxCell id="XGQdO2VJRoyWXTCaJZEM-115" value="&lt;p style=&quot;line-height: 100%;&quot;&gt;&lt;font style=&quot;font-size: 22px;&quot;&gt;+&lt;/font&gt;&lt;/p&gt;" style="ellipse;whiteSpace=wrap;html=1;aspect=fixed;strokeColor=default;align=center;verticalAlign=middle;fontFamily=Helvetica;fontSize=12;fontColor=default;resizable=1;fillColor=default;strokeWidth=1.5;" parent="1" vertex="1">
          <mxGeometry x="91.4" y="71" width="18" height="18" as="geometry" />
        </mxCell>
        <mxCell id="XGQdO2VJRoyWXTCaJZEM-137" style="edgeStyle=orthogonalEdgeStyle;rounded=0;orthogonalLoop=1;jettySize=auto;html=1;exitX=1;exitY=0.5;exitDx=0;exitDy=0;entryX=0;entryY=0.5;entryDx=0;entryDy=0;fontFamily=Helvetica;fontSize=12;fontColor=default;resizable=1;" parent="1" source="XGQdO2VJRoyWXTCaJZEM-132" target="XGQdO2VJRoyWXTCaJZEM-30" edge="1">
          <mxGeometry relative="1" as="geometry" />
        </mxCell>
        <mxCell id="XGQdO2VJRoyWXTCaJZEM-132" value="m&lt;sub&gt;-i,t&lt;/sub&gt;&lt;sup&gt;&lt;font style=&quot;font-size: 7px;&quot;&gt;&lt;b&gt;(1)&lt;/b&gt;&lt;/font&gt;&lt;/sup&gt;" style="text;html=1;align=center;verticalAlign=middle;whiteSpace=wrap;rounded=1;fillColor=none;strokeColor=#9673a6;" parent="1" vertex="1">
          <mxGeometry x="-240" y="242.75" width="51" height="30" as="geometry" />
        </mxCell>
        <mxCell id="XGQdO2VJRoyWXTCaJZEM-139" value="&lt;span style=&quot;forced-color-adjust: none; color: rgb(0, 0, 0); font-family: Helvetica; font-size: 12px; font-style: normal; font-variant-ligatures: normal; font-variant-caps: normal; font-weight: 400; letter-spacing: normal; orphans: 2; text-align: center; text-indent: 0px; text-transform: none; widows: 2; word-spacing: 0px; -webkit-text-stroke-width: 0px; white-space: normal; text-decoration-thickness: initial; text-decoration-style: initial; text-decoration-color: initial; background-color: rgb(251, 251, 251); float: none; display: inline !important;&quot;&gt;τ&lt;/span&gt;&lt;sub style=&quot;forced-color-adjust: none; color: rgb(0, 0, 0); font-family: Helvetica; font-style: normal; font-variant-ligatures: normal; font-variant-caps: normal; font-weight: 400; letter-spacing: normal; orphans: 2; text-align: center; text-indent: 0px; text-transform: none; widows: 2; word-spacing: 0px; -webkit-text-stroke-width: 0px; white-space: normal; text-decoration-thickness: initial; text-decoration-style: initial; text-decoration-color: initial; background-color: rgb(251, 251, 251);&quot;&gt;i&lt;/sub&gt;&lt;sup style=&quot;forced-color-adjust: none; color: rgb(0, 0, 0); font-family: Helvetica; font-style: normal; font-variant-ligatures: normal; font-variant-caps: normal; font-weight: 400; letter-spacing: normal; orphans: 2; text-align: center; text-indent: 0px; text-transform: none; widows: 2; word-spacing: 0px; -webkit-text-stroke-width: 0px; white-space: normal; text-decoration-thickness: initial; text-decoration-style: initial; text-decoration-color: initial; background-color: rgb(251, 251, 251);&quot;&gt;t-1&lt;/sup&gt;" style="text;whiteSpace=wrap;html=1;fontFamily=Helvetica;fontSize=12;fontColor=default;resizable=1;" parent="1" vertex="1">
          <mxGeometry x="30.4" y="247.75" width="29.6" height="40" as="geometry" />
        </mxCell>
        <mxCell id="XGQdO2VJRoyWXTCaJZEM-140" value="τ&lt;sub&gt;i&lt;/sub&gt;&lt;sup&gt;t&lt;/sup&gt;" style="text;html=1;align=center;verticalAlign=middle;whiteSpace=wrap;rounded=0;" parent="1" vertex="1">
          <mxGeometry x="145.40000000000003" y="250.75" width="20" height="25" as="geometry" />
        </mxCell>
        <mxCell id="XGQdO2VJRoyWXTCaJZEM-141" style="edgeStyle=orthogonalEdgeStyle;rounded=0;orthogonalLoop=1;jettySize=auto;html=1;exitX=1;exitY=0.5;exitDx=0;exitDy=0;entryX=0.776;entryY=0.679;entryDx=0;entryDy=0;entryPerimeter=0;fontFamily=Helvetica;fontSize=12;fontColor=default;resizable=1;" parent="1" source="XGQdO2VJRoyWXTCaJZEM-11" edge="1">
          <mxGeometry relative="1" as="geometry">
            <mxPoint x="139.40000000000003" y="273.25" as="sourcePoint" />
            <mxPoint x="169.53600000000023" y="273.6399999999999" as="targetPoint" />
          </mxGeometry>
        </mxCell>
        <mxCell id="XGQdO2VJRoyWXTCaJZEM-144" value="m&lt;sub&gt;i&lt;/sub&gt;&lt;sup&gt;&lt;font style=&quot;font-size: 7px;&quot;&gt;&lt;b&gt;(1)&lt;/b&gt;&lt;/font&gt;&lt;/sup&gt;" style="rounded=1;whiteSpace=wrap;html=1;fillColor=#fae6d4;" parent="1" vertex="1">
          <mxGeometry x="349" y="356" width="60" height="30" as="geometry" />
        </mxCell>
        <mxCell id="XGQdO2VJRoyWXTCaJZEM-146" value="m&lt;sub&gt;j&lt;/sub&gt;&lt;sup&gt;&lt;font style=&quot;font-size: 7px;&quot;&gt;&lt;b&gt;(1)&lt;/b&gt;&lt;/font&gt;&lt;/sup&gt;" style="rounded=1;whiteSpace=wrap;html=1;fillColor=#fae6d4;" parent="1" vertex="1">
          <mxGeometry x="439" y="356" width="60" height="30" as="geometry" />
        </mxCell>
        <mxCell id="XGQdO2VJRoyWXTCaJZEM-150" style="edgeStyle=orthogonalEdgeStyle;rounded=0;orthogonalLoop=1;jettySize=auto;html=1;exitX=0.5;exitY=0;exitDx=0;exitDy=0;entryX=0.198;entryY=0.958;entryDx=0;entryDy=0;entryPerimeter=0;fontFamily=Helvetica;fontSize=12;fontColor=default;resizable=1;" parent="1" source="XGQdO2VJRoyWXTCaJZEM-144" edge="1">
          <mxGeometry relative="1" as="geometry">
            <mxPoint x="378.70000000000005" y="304.74" as="targetPoint" />
          </mxGeometry>
        </mxCell>
        <mxCell id="XGQdO2VJRoyWXTCaJZEM-151" style="edgeStyle=orthogonalEdgeStyle;rounded=0;orthogonalLoop=1;jettySize=auto;html=1;exitX=0.5;exitY=0;exitDx=0;exitDy=0;entryX=0.798;entryY=0.928;entryDx=0;entryDy=0;entryPerimeter=0;fontFamily=Helvetica;fontSize=12;fontColor=default;resizable=1;" parent="1" source="XGQdO2VJRoyWXTCaJZEM-146" edge="1">
          <mxGeometry relative="1" as="geometry">
            <mxPoint x="468.70000000000005" y="303.8399999999999" as="targetPoint" />
          </mxGeometry>
        </mxCell>
        <mxCell id="XGQdO2VJRoyWXTCaJZEM-174" style="edgeStyle=orthogonalEdgeStyle;rounded=1;orthogonalLoop=1;jettySize=auto;html=1;exitX=0;exitY=0.5;exitDx=0;exitDy=0;entryX=0.75;entryY=0;entryDx=0;entryDy=0;fontFamily=Helvetica;fontSize=12;fontColor=default;resizable=1;curved=0;dashed=1;dashPattern=12 12;" parent="1" source="XGQdO2VJRoyWXTCaJZEM-152" target="XGQdO2VJRoyWXTCaJZEM-30" edge="1">
          <mxGeometry relative="1" as="geometry">
            <mxPoint x="344" y="209.24" as="sourcePoint" />
            <mxPoint x="-40" y="251" as="targetPoint" />
            <Array as="points">
              <mxPoint x="349" y="208" />
              <mxPoint x="-12" y="208" />
              <mxPoint x="-12" y="270" />
            </Array>
          </mxGeometry>
        </mxCell>
        <mxCell id="XGQdO2VJRoyWXTCaJZEM-178" style="edgeStyle=orthogonalEdgeStyle;rounded=0;orthogonalLoop=1;jettySize=auto;html=1;exitX=0.25;exitY=0;exitDx=0;exitDy=0;entryX=0.5;entryY=1;entryDx=0;entryDy=0;fontFamily=Helvetica;fontSize=12;fontColor=default;resizable=1;" parent="1" source="XGQdO2VJRoyWXTCaJZEM-152" target="XGQdO2VJRoyWXTCaJZEM-164" edge="1">
          <mxGeometry relative="1" as="geometry" />
        </mxCell>
        <mxCell id="XGQdO2VJRoyWXTCaJZEM-152" value="m&lt;sub&gt;i&lt;/sub&gt;&lt;sup&gt;&lt;font style=&quot;font-size: 7px;&quot;&gt;&lt;b&gt;(L)&lt;/b&gt;&lt;/font&gt;&lt;/sup&gt;" style="rounded=1;whiteSpace=wrap;html=1;fillColor=#fae6d4;" parent="1" vertex="1">
          <mxGeometry x="349" y="192.99" width="60" height="30" as="geometry" />
        </mxCell>
        <mxCell id="XGQdO2VJRoyWXTCaJZEM-238" style="edgeStyle=orthogonalEdgeStyle;rounded=0;orthogonalLoop=1;jettySize=auto;html=1;exitX=0.75;exitY=0;exitDx=0;exitDy=0;entryX=0.5;entryY=1;entryDx=0;entryDy=0;fontFamily=Helvetica;fontSize=12;fontColor=default;resizable=1;opacity=30;" parent="1" source="XGQdO2VJRoyWXTCaJZEM-153" target="XGQdO2VJRoyWXTCaJZEM-231" edge="1">
          <mxGeometry relative="1" as="geometry" />
        </mxCell>
        <mxCell id="XGQdO2VJRoyWXTCaJZEM-153" value="m&lt;sub&gt;j&lt;/sub&gt;&lt;sup&gt;&lt;font style=&quot;font-size: 7px;&quot;&gt;&lt;b&gt;(L)&lt;/b&gt;&lt;/font&gt;&lt;/sup&gt;" style="rounded=1;whiteSpace=wrap;html=1;fillColor=#fae6d4;" parent="1" vertex="1">
          <mxGeometry x="439" y="192.99" width="60" height="30" as="geometry" />
        </mxCell>
        <mxCell id="XGQdO2VJRoyWXTCaJZEM-154" style="edgeStyle=orthogonalEdgeStyle;rounded=0;orthogonalLoop=1;jettySize=auto;html=1;exitX=0.5;exitY=1;exitDx=0;exitDy=0;fontFamily=Helvetica;fontSize=12;fontColor=default;resizable=1;startArrow=classic;startFill=1;endArrow=none;endFill=0;entryX=0.198;entryY=-0.011;entryDx=0;entryDy=0;entryPerimeter=0;" parent="1" source="XGQdO2VJRoyWXTCaJZEM-152" edge="1">
          <mxGeometry relative="1" as="geometry">
            <mxPoint x="378.70000000000005" y="275.6700000000001" as="targetPoint" />
          </mxGeometry>
        </mxCell>
        <mxCell id="XGQdO2VJRoyWXTCaJZEM-156" style="edgeStyle=orthogonalEdgeStyle;rounded=0;orthogonalLoop=1;jettySize=auto;html=1;exitX=0.5;exitY=1;exitDx=0;exitDy=0;entryX=0.798;entryY=-0.011;entryDx=0;entryDy=0;entryPerimeter=0;fontFamily=Helvetica;fontSize=12;fontColor=default;resizable=1;startArrow=classic;startFill=1;endArrow=none;endFill=0;" parent="1" source="XGQdO2VJRoyWXTCaJZEM-153" edge="1">
          <mxGeometry relative="1" as="geometry">
            <mxPoint x="468.70000000000005" y="275.6700000000001" as="targetPoint" />
          </mxGeometry>
        </mxCell>
        <mxCell id="XGQdO2VJRoyWXTCaJZEM-287" style="rounded=0;orthogonalLoop=1;jettySize=auto;html=1;exitX=1;exitY=0.5;exitDx=0;exitDy=0;fontFamily=Helvetica;fontSize=12;fontColor=default;resizable=1;entryX=0;entryY=0.5;entryDx=0;entryDy=0;fillColor=#e51400;strokeColor=#B20000;dashed=1;endArrow=none;endFill=0;" parent="1" source="XGQdO2VJRoyWXTCaJZEM-158" target="XGQdO2VJRoyWXTCaJZEM-286" edge="1">
          <mxGeometry relative="1" as="geometry">
            <mxPoint x="640" y="94.1052631578948" as="targetPoint" />
          </mxGeometry>
        </mxCell>
        <mxCell id="XGQdO2VJRoyWXTCaJZEM-158" value="GIB" style="rounded=1;whiteSpace=wrap;html=1;fillColor=#efc1b9;" parent="1" vertex="1">
          <mxGeometry x="350" y="79" width="150" height="30" as="geometry" />
        </mxCell>
        <mxCell id="XGQdO2VJRoyWXTCaJZEM-172" style="edgeStyle=orthogonalEdgeStyle;rounded=0;orthogonalLoop=1;jettySize=auto;html=1;exitX=0;exitY=0.5;exitDx=0;exitDy=0;entryX=1;entryY=0.5;entryDx=0;entryDy=0;fontFamily=Helvetica;fontSize=12;fontColor=default;resizable=1;" parent="1" source="XGQdO2VJRoyWXTCaJZEM-164" target="XGQdO2VJRoyWXTCaJZEM-168" edge="1">
          <mxGeometry relative="1" as="geometry" />
        </mxCell>
        <mxCell id="XGQdO2VJRoyWXTCaJZEM-164" value="&lt;p style=&quot;line-height: 100%;&quot;&gt;&lt;font style=&quot;font-size: 22px;&quot;&gt;+&lt;/font&gt;&lt;/p&gt;" style="ellipse;whiteSpace=wrap;html=1;aspect=fixed;strokeColor=default;align=center;verticalAlign=middle;fontFamily=Helvetica;fontSize=12;fontColor=default;resizable=1;fillColor=default;strokeWidth=1.5;" parent="1" vertex="1">
          <mxGeometry x="354.9999999999998" y="142.25" width="18" height="18" as="geometry" />
        </mxCell>
        <mxCell id="XGQdO2VJRoyWXTCaJZEM-195" style="edgeStyle=orthogonalEdgeStyle;rounded=0;orthogonalLoop=1;jettySize=auto;html=1;exitX=0;exitY=0.5;exitDx=0;exitDy=0;entryX=1;entryY=0.5;entryDx=0;entryDy=0;fontFamily=Helvetica;fontSize=12;fontColor=default;resizable=1;" parent="1" source="XGQdO2VJRoyWXTCaJZEM-166" target="XGQdO2VJRoyWXTCaJZEM-164" edge="1">
          <mxGeometry relative="1" as="geometry" />
        </mxCell>
        <mxCell id="XGQdO2VJRoyWXTCaJZEM-166" value="Add noise" style="text;html=1;align=center;verticalAlign=middle;whiteSpace=wrap;rounded=0;fontFamily=Helvetica;fontSize=12;fontColor=default;resizable=1;" parent="1" vertex="1">
          <mxGeometry x="396" y="137.24999999999997" width="60" height="28.01" as="geometry" />
        </mxCell>
        <mxCell id="XGQdO2VJRoyWXTCaJZEM-180" style="edgeStyle=orthogonalEdgeStyle;rounded=0;orthogonalLoop=1;jettySize=auto;html=1;exitX=0.5;exitY=0;exitDx=0;exitDy=0;entryX=0.5;entryY=1;entryDx=0;entryDy=0;fontFamily=Helvetica;fontSize=12;fontColor=default;resizable=1;" parent="1" source="XGQdO2VJRoyWXTCaJZEM-168" target="XGQdO2VJRoyWXTCaJZEM-179" edge="1">
          <mxGeometry relative="1" as="geometry" />
        </mxCell>
        <mxCell id="XGQdO2VJRoyWXTCaJZEM-168" value="" style="rounded=1;whiteSpace=wrap;html=1;strokeColor=#efc1b9;align=center;verticalAlign=middle;fontFamily=Helvetica;fontSize=12;resizable=1;fillColor=default;fontColor=#000000;" parent="1" vertex="1">
          <mxGeometry x="257" y="126.25999999999999" width="75" height="49.99" as="geometry" />
        </mxCell>
        <mxCell id="XGQdO2VJRoyWXTCaJZEM-169" value="" style="shape=image;verticalLabelPosition=bottom;labelBackgroundColor=default;verticalAlign=top;aspect=fixed;imageAspect=0;image=data:image/png,iVBORw0KGgoAAAANSUhEUgAAAKoAAAByCAYAAADDG0rAAAAMTmlDQ1BJQ0MgUHJvZmlsZQAASImVVwdYU8kWnltSIQQIhCIl9CaISAkgJYQWQHoRRCUkAUKJMSGo2NFFBdcuIljRVRDFtgKy2FBXXVkUu2tZLCisrIsFu/ImBNBlX/nefN/c+e8/Z/4559y5d+4AQO/gS6W5qCYAeZJ8WWxIAGticgqL1AWoQBvoAVtgyRfIpZzo6AgAy1D79/LmBkCU7VVHpdY/+/9r0RKK5AIAkGiI04VyQR7EPwKANwuksnwAiFLIW8zIlyrxOoh1ZNBBiKuVOFOFm5U4XYUvD9jEx3IhfgwAWZ3Pl2UCoNELeVaBIBPq0GG0wFkiFEsg9ofYNy9vmhDiBRDbQhs4J12pz07/Rifzb5rpw5p8fuYwVsUyUMiBYrk0lz/r/0zH/y55uYqhOWxgVc+ShcYqY4Z5e5wzLVyJ1SF+J0mPjIJYGwAUFwsH7JWYmaUITVDZo7YCORfmDDAhHi/PjeMN8rFCfmA4xEYQZ0hyIyMGbYoyxMFKG5g/tFycz4uHWB/iapE8KG7Q5qRsWuzQvDcyZFzOIN/Flw34oNT/oshJ4Kj0Me0sEW9QH3MqzIpPgpgKcWCBODESYg2II+U5ceGDNqmFWdzIIRuZIlYZiyXEMpEkJEClj5VlyIJjB+335MmHYsdOZol5kYP4Sn5WfKgqV9hjAX/AfxgL1iuScBKGdETyiRFDsQhFgUGq2HGySJIQp+JxfWl+QKxqLG4vzY0etMcDRLkhSt4c4nh5QdzQ2IJ8uDhV+nixND86XuUnXpHND4tW+YMfABGACwIBCyhgTQfTQDYQt/U09MA7VU8w4AMZyAQi4DjIDI1IGuiRwGscKAR/QiQC8uFxAQO9IlAA+c8jWCUnHuZUV0eQMdinVMkBTyDOA+EgF94rBpQkwx4kgseQEf/DIz6sAhhDLqzK/n/PD7FfGQ5kIgYZxdCMLPqQJTGIGEgMJQYT7XBD3Bf3xiPg1R9WF5yNew7F8dWe8ITQTnhIuE7oINyeKi6SjfByAuiA+sGD+Un/Nj+4NdR0wwNwH6gOlXEmbggccVc4Dwf3gzO7QZY76LcyK6wR2n+L4JsnNGhHcaagFD2KP8V25EgNew23YRVlrr/Nj8rX9OF8c4d7Rs7P/Sb7QtiGj7TElmKHsXPYKewC1ow1ABZ2AmvEWrFjSjy84h4PrLih2WIH/MmBOiPXzNcnq8yk3LnWudv5k6ovXzQzX/kycqdJZ8nEmVn5LA7cMUQsnkTgNJrl4uziCoBy/1F93l7FDOwrCLP1K7fodwB8TvT39//0lQs7AcBBD/hJOPqVs2XDrUUNgPNHBQpZgYrDlRcC/HLQ4dtnAEyABdzfHIELcAfewB8EgTAQBeJBMpgCvc+C61wGZoA5YCEoBqVgFVgPKsBWsANUg33gEGgAzeAU+BlcBJfBdXAHrp5O8Az0gjfgI4IgJISGMBADxBSxQhwQF4SN+CJBSAQSiyQjaUgmIkEUyBxkEVKKrEEqkO1IDXIQOYqcQi4g7cht5AHSjbxEPqAYqo7qoMaoNToGZaMcNByNRyejmeh0tBBdjK5Ay9EqdC9aj55CL6LX0Q70GdqHAUwNY2JmmCPGxrhYFJaCZWAybB5WgpVhVVgd1gSf81WsA+vB3uNEnIGzcEe4gkPxBFyAT8fn4cvxCrwar8fP4FfxB3gv/oVAIxgRHAheBB5hIiGTMINQTCgj7CIcIZyF71In4Q2RSGQSbYge8F1MJmYTZxOXEzcT9xNPEtuJj4h9JBLJgORA8iFFkfikfFIxaSNpL+kE6Qqpk/SOrEY2JbuQg8kpZAm5iFxG3kM+Tr5Cfkr+SNGkWFG8KFEUIWUWZSVlJ6WJconSSflI1aLaUH2o8dRs6kJqObWOepZ6l/pKTU3NXM1TLUZNrLZArVztgNp5tQdq79W11e3Vueqp6gr1Feq71U+q31Z/RaPRrGn+tBRaPm0FrYZ2mnaf9k6DoeGkwdMQaszXqNSo17ii8ZxOoVvROfQp9EJ6Gf0w/RK9R5Oiaa3J1eRrztOs1DyqeVOzT4uhNVYrSitPa7nWHq0LWl3aJG1r7SBtofZi7R3ap7UfMTCGBYPLEDAWMXYyzjI6dYg6Njo8nWydUp19Om06vbrauq66ibozdSt1j+l2MDGmNZPHzGWuZB5i3mB+0DPW4+iJ9Jbp1eld0XurP0rfX1+kX6K/X/+6/gcDlkGQQY7BaoMGg3uGuKG9YYzhDMMthmcNe0bpjPIeJRhVMurQqN+MUCN7o1ij2UY7jFqN+oxNjEOMpcYbjU8b95gwTfxNsk3WmRw36TZlmPqaik3XmZ4w/YOly+KwclnlrDOsXjMjs1Azhdl2szazj+Y25gnmReb7ze9ZUC3YFhkW6yxaLHotTS0nWM6xrLX8zYpixbbKstpgdc7qrbWNdZL1EusG6y4bfRueTaFNrc1dW5qtn+102yrba3ZEO7Zdjt1mu8v2qL2bfZZ9pf0lB9TB3UHssNmhfTRhtOdoyeiq0Tcd1R05jgWOtY4PnJhOEU5FTg1Oz8dYjkkZs3rMuTFfnN2cc513Ot8Zqz02bGzR2KaxL13sXQQulS7XxtHGBY+bP65x3AtXB1eR6xbXW24MtwluS9xa3D67e7jL3Ovcuz0sPdI8NnncZOuwo9nL2ec9CZ4BnvM9mz3fe7l75Xsd8vrL29E7x3uPd9d4m/Gi8TvHP/Ix9+H7bPfp8GX5pvlu8+3wM/Pj+1X5PfS38Bf67/J/yrHjZHP2cp4HOAfIAo4EvOV6cedyTwZigSGBJYFtQdpBCUEVQfeDzYMzg2uDe0PcQmaHnAwlhIaHrg69yTPmCXg1vN4wj7C5YWfC1cPjwivCH0bYR8gimiagE8ImrJ1wN9IqUhLZEAWieFFro+5F20RPj/4phhgTHVMZ8yR2bOyc2HNxjLipcXvi3sQHxK+Mv5Ngm6BIaEmkJ6Ym1iS+TQpMWpPUMXHMxLkTLyYbJouTG1NIKYkpu1L6JgVNWj+pM9UttTj1xmSbyTMnX5hiOCV3yrGp9Kn8qYfTCGlJaXvSPvGj+FX8vnRe+qb0XgFXsEHwTOgvXCfsFvmI1oieZvhkrMnoyvTJXJvZneWXVZbVI+aKK8QvskOzt2a/zYnK2Z3Tn5uUuz+PnJeWd1SiLcmRnJlmMm3mtHapg7RY2jHda/r66b2ycNkuOSKfLG/M14E/+q0KW8V3igcFvgWVBe9mJM44PFNrpmRm6yz7WctmPS0MLvxhNj5bMLtljtmchXMezOXM3T4PmZc+r2W+xfzF8zsXhCyoXkhdmLPw1yLnojVFrxclLWpabLx4weJH34V8V1usUSwrvrnEe8nWpfhS8dK2ZeOWbVz2pURY8kupc2lZ6aflguW/fD/2+/Lv+1dkrGhb6b5yyyriKsmqG6v9Vlev0VpTuObR2glr69ex1pWse71+6voLZa5lWzdQNyg2dJRHlDdutNy4auOniqyK65UBlfs3GW1atuntZuHmK1v8t9RtNd5auvXDNvG2W9tDttdXWVeV7SDuKNjxZGfiznM/sH+o2WW4q3TX592S3R3VsdVnajxqavYY7VlZi9Yqarv3pu69vC9wX2OdY932/cz9pQfAAcWBPw6mHbxxKPxQy2H24bofrX7cdIRxpKQeqZ9V39uQ1dDRmNzYfjTsaEuTd9ORn5x+2t1s1lx5TPfYyuPU44uP958oPNF3Unqy51TmqUctU1vunJ54+tqZmDNtZ8PPnv85+OfT5zjnTpz3Od98wevC0V/YvzRcdL9Y3+rWeuRXt1+PtLm31V/yuNR42fNyU/v49uNX/K6cuhp49edrvGsXr0deb7+RcOPWzdSbHbeEt7pu595+8VvBbx/vLLhLuFtyT/Ne2X2j+1W/2/2+v8O949iDwAetD+Me3nkkePTssfzxp87FT2hPyp6aPq3pculq7g7uvvzHpD86n0mffewp/lPrz03PbZ//+Jf/X629E3s7X8he9L9c/srg1e7Xrq9b+qL77r/Je/Pxbck7g3fV79nvz31I+vD044xPpE/ln+0+N30J/3K3P6+/X8qX8Qd+BTCgPNpkAPByNwC0ZAAY8NxInaQ6Hw4URHWmHUDgP2HVGXKguANQB//pY3rg381NAA7sBMAa6tNTAYimARDvCdBx44br0Flu4NypLER4NtgW9Dk9Lx38m6I6k37j98gWKFVdwcj2X18LgyaXDPIBAAAAbGVYSWZNTQAqAAAACAAEARoABQAAAAEAAAA+ARsABQAAAAEAAABGASgAAwAAAAEAAgAAh2kABAAAAAEAAABOAAAAAAAAAJAAAAABAAAAkAAAAAEAAqACAAQAAAABAAAAqqADAAQAAAABAAAAcgAAAAAM3wPvAAAACXBIWXMAABYlAAAWJQFJUiTwAAARi0lEQVR4Ae1d+XNU15X+pG61Wt3a9w0QyGA2s++LcTAmhEkmJokrU6n5IfO3zExqqqZSUxN7KonHdkzsMRhsEjCxjTHIxgvYAgRiNQitrX3pltSSWi21NN95GBxUWnEv792+p0rV6tev37vv3K/Pvffcc76TME6BFq0Bk2sg0eTt083TGjA0oIGqgWAJDWigWqKbdCM1UDUGLKEBDVRLdJNupAaqxoAlNGC3RCtN2sjxUAih4QDGx0JsYQISbTYkOpKRwFct4dWABupc9Um3s4Az0N2JodYm9N25iRF/LxKTkmFLcSG9/Em4SsuQnJUDmzNlrlfX50+hAQ3UKRQz2WGxnAMtHnirLqD11HEMNNbCnkyApqYhIcmBkZ4ugEBOmbcQhXt+jJz12+DMLSCIkya7nD42Bw0k6J2p2WlrfHQEPdWX0PDOQfRer0JKcSnSl66Ca/5CODKyeZFxBHt7MFBfi/67NxBob0XmU+tR+pNfImvlWm1dZ6fmKc/SQJ1SNd99ICBt/eQU6g7+Dw+OI2vdFmSu3ggb56OTyeiAH77rl+Gr+hpJGZkoPfDPyN/2DOyu1MlO18dmoQEN1BmUNB4ahYfD/N2XfmNYz/xdP4SbQ/tspL/2Drq+PIux4DDmvfBrFO/aB5vLPZuv6nMmaEDPUSco5JG3Y2MGSO/87l+R9sRSFO59HsnZuY+cMt2btEVLOOQ70XnuNBrffg02uwMFTz8HW7Jzuq/pzybRgPajTqIU4xAXRe3nP0HNH/4T7oWLUfSjn88JpA8u6yqej7xdewnOFDQc+RO8nN+KldYyNw1ooE6hL+/Nq6h97b/hyMlF8b6fccGUNcWZMx92Fc1DPi1paKAf9YdexhAXWuId0DJ7DWigTqKrYK8X9W+9jBG+Fu7+ByTn5E1y1twOuReUI++Zvej/5ibucVE2Ghia2wXi/GwN1AkAkGG5nkO0r/oicnc+BxcBFi7JWLYGeTv3cM76ERqPH9JWdQ6K1UCdoKy2z8+g/aPjyFy1gX7QdUhMDJ+KEhISkL1hG9KWLIfnndchXgEts9NA+Hphdvcz9VmBrg40v3cYNncqcjZs546SI+ztFd+ruLjGgiO4/eK/QXy0WmbWgAbqtzqSAJP6o6/BX3MbOVufQVJ2DsQCRkKc+UUo2n8AvdWXUXf0oJ4CzELJGqjfKqn78gXu4Vdyx2kTUhcuYSRUZF3M6UtXI3XJMniOvYGhzrZZdFV8n6KByv6XaKiWU8cw2u/j/v1TRhRUpGGRaLejmL7ZkV4fbv/u378NFYz0Xa17fQ1U+jNbPj5pBJpkc17qLCiK2JA/ESbi9srfvR++q5Xw3rgy8WP9/u80EPdADfb50P3Vp8YevGvBoikDTf5OZ2H9N3vtZsZcJ+Du7/8DYyPBsF5bpYvFNVCFe6PpxNuMdKpC1vqtcOYVRb1vJUil5Kf/hMGmRnjoFtMyuQbiGqgDzQ0E6UWk0qnvnrfISCWZXE2ROyqeBfe8MiSlZ8Dz7p8xOuiP3M0sfOW4BaoRvnfiEPpuXOXqezkcTB2JldhS3Ch9/lcY7mhDzcGX2AwdBzCxL+IWqH337sDPv6x1m5FWvjRqC6iJHSDvxaqKRZVsAe/FLxH0+SY7La6PxSVQx4JBtJ09yZSRW0wpmcfI+9gHM9vdaSigByDQ2XHfqjIWVst3GohLoPbevWlkj2au3oDUJ5Z9p40Y/2dPTUdq+RJOR65gqIOhgFoeaiDugBoaGkTHF2eYhFcDV8l82J2uh8qI9T9JBGru5qcx3NWGusOvMsBa+AK0iAbiC6h0RxnW9EYVMpatQtri5aZDgZ0B2qmLl6H/znX4mY6t5b4G4gqoo4MD6K78AkPNjcbCxYy5S460DGSt2ojhznY0MWZ1bERHVwlU4weotKZ9925zu/Jrwx1lRmv6wHo6svMMq+qvuYX+Oh2zGldAFWvac6WSNDweuGOwVfoAhLN5TUpLR/qTKw2r2nrmpLaqVFp8WFRaU3/DPXgvfQlXWTlTn803N50I4OTcQqOt/d/c0FY1XoA6ypW+99olzk0bkCq59hbIq3eQYSV98QoMtzejg+kx8R6wor5FpTUd8DSgizn6KaULjM6faL3M+t5ZWIyUkgXovVlFq3rXrM2MSruUB2qIacnCAzXUVGcsoqxEBenIzOaiaikCLU2GtyKePQBqA5XWdLDNg45PPkQyrZMMpVaTlOIFDOYuge9apTHPtlr7w9VepYEaIjmZ7/Z1zk3rkU4Hv51Eu1YTsapuzqsHG+vQQ9davGatKg3UAJ3mbR8cY0ZpPtKXrLQaRo32GvGq88vhICGw78rX8HO+HY+iLFBlldxHh7mwQmesWGOKCKnHBZiDqdtugtV/75Yx3x4fjT+SNWWBOuztQfOJw3BkZiFj+arHxYgpvidWNY2LKgnu9nL4H2xvMUW7otkIJYEqUUf++rvw135Da7pOCaZnB3lZnSVl6L12me6qK3EXWaUkUEf8feQifQ0SjJy5en00f/gRu1dCQiIyl68m1XoWrepFVmXpiNi9zHhh9YDKyHg/V8iy9Zi+Yq0S1vQBcCRYxUmuVUnv9t2+RtKK+MkCUA6o4pKq+/NLdEW5kbtx+4M+VuI1gcyCWWQZtDMU0FddiaC3W4nnms1DKAfUgaZ6sp5cQfrKNVGh5pmNksN5TnJuPpyFJeg4+4ERBI44sapqAZU7UXdf+S0SWTEvf/uecOLDNNcSq5pDjlU7QwF9XFgF+3tN07ZINkQpoA60NDKU7yu6o1YjkRX1VJXkvEIk5xeSy/Xt+2TA/IGqLkoB9faLvzHK5RQ+949K95v4VXO3kMM1NRU+5n+NsACb6qIMUGVrsefCOa7010AoHVWXlIJiOPOL0XjkdQwwMkz1KitKAFXcNDUv/5aLJyeK9h1QHaMPn0+YsaVocA+LCEtwuMqiBFAlqLj7fAUypD5pBHj3zQoA4SVwMrC6kVVcBjk/V9mqWh6oEqBR+8bvudKnNWUJyHiT3G0/MGjcOy98CgkSV1UsD1QhlPBWfs5yO1LtOfxVTMze8S5yZ6WQtrLp6OusCMhgFUU9AJYGqoTy1bMYbgLnaVISJ14ld9tug7W6jZkMqiYBWhqo3ltXjWDizJXrjaE/XoEqVlUKC3uOvalsCKBlgRoKBOD5y1tcPCUhZ8vTrLBni1ecGs+du323Qf/b/P5RpquoF1htWaB2X/2Ke/qXkc4ykBKAEu/iKixlXthKNB9/m+kq9KsqJpYE6oi/n9H7R5DIco1Za7ewFGSSYt3yeI+Tt+1ZJNiTWGqdlJWKla60HlC5qu1kPKbkD2XSb2pPTXu8XlXwW1K3KovlgNrPvg8f43FVEssBNejrQevpE0ZdKKPKXhw5+GcDvNytu4xExrr/+6NRkXA237HCOdYCKq1p22enMdR4z6hZKqx3Wh7VgMFazYWVFK3o5taqKmIpoA6SMrLj3EewZ5Dqhu6YSJQpV6Fjs9dtZcZqNhreegUyn1dBLANU4V1qZmW7IU89Mp5ab5S7UaEDIvEMNm4n5/9gH/rJa+D58JgSu1WWAWrfnRvcKv0MKazFJJX2Erm61TK1BtLIDCN1q1rff0eJTQBLAHV0oB/CvCwLqYyl5JBicpuW6TUg06L8p/ci2NV5311l8QorlgBqJwtEeLkwSCNduLu0jLtQlmj29EiK8KeSBZBSVMrQxw3oqTzH9OrqCN8xspc3fY8HutpJwlthBF2ksXhZogUZ+SLbhVNfXZz/WWs3GTUAGg79L0KsY2BVMTVQZc+6VZzXly+wLtRqWoh5Ma1ZarVOFquaTNKK3J170HfrmqUXVqYGqgxX3V9UkNK8zBj29Vbp3H8qsuhMW/QkHMxabfv4Pfglv8qCYlqgBnu9kPjKQLuHwRZPxbRMuQX79ZEmC19V/vZnWbqoGbVvvoxQMPDI51Z4Y0qgChtfx5cV6KJzX7JKxdUiw5iWx9OA6M7JhVUO66z23biEtnOnH+9CMfyWKYEqyXrtn36AJAZZCG1kPKQ/RxoDUrJIOFYT7Q76Vt9lMmBTpG8Z1uubDqhG0MmZ98jGd9NginZybqUlPBoQHoDcXXsN3tjaN/+I0QHreAFMBdTQcMAIOmn927vIov8vk8x1WsKnAZkCyK5ezuZd8FWdR/Opv1gmG8A0QB0fC8HHHKhmVlR2zV+E7I074j69JHwQ/e5KMgWQ8EhHTgE6Kt5HD7MkrMAIaA6gMnxvsMWDZu5Li1M6m7ymDq5UtURGA868AmSREXC4u51Ea4dZi6vZ9IErsQcqQTrs7UIzo3x6vv7ciFBPK38yMj2kr/pQAxImmb1pF2sCVKHpxCH2gblJgWPOJiZMdC1n/oYWUijKnDR7g1os0Q+RYbJ/Em027vatwkhvDzo/O4OkrDzM2/9zmDUYPaYWNTQ8jM4Ln8DzzkGkch8/b8cenagXRUDb3anIWrOZDNbFaD99nH1hXlqgmAF1PDTKVInzqHvzD/w15yB/53OsYpIaxW7StxINSEJgzqadzF61o/nkEXSzjpUYELNJTIA6Pj5GkH6F2j+9CNlvEjoe4abXEhsNCCtgzpZdCHIa0HTsDYMcOBQMxqYxU9w1+nNULp66L55Hzav/hRDnp/l7fgz3vIVTNE8fjpYG0sqXYpxcXp2ffoT6I6+ijP2USXIPG7kTzCAJ45RoNcTYw+c8qPb1FzFG4tn83ftZTNd6pcmjpa9o30cIkfsYsdbJWAApGz//hX9BDgk+zMCSGDWgSv2ntooPUH/4FcNnl79rH9IXL4t2X+j7zaABmZb1sXR852cfs45sNkoO/AoFZAuUjYJYSlSAKoW7PKf+ihYW0U1iEd08ltZxL1gUy+fW955GAzLI9t+7jS7GArM8IAp/+DxKf/QzFreIHY9CxIHay+zR5pNH0U03VEpZOXK5zyyFErSYXwMDTE2XTZhAaxNyaFUXvPBruFiMLRYSMaCOciu0/fMzaKN/btDIxV/H8ogbjeEkFg+q7/l4Ghju7oSX5Sz7b1UjhQEtxXsPoGDHs1H3d4cdqPeDS6rJD/Uei5Odh421kLLWbIKsKm2sqKfFehoQozPQcI9JlmfpGQghe/MOTgV+wT6N3lZ3+IDKeY2flrOt4kMO8xUY8XmNPKd0btM5OdTLlp0W62pgjB6BAGsE9N64gv7rVfQKFCFn624UPbuf04HSiD/Y9waquJykIFcb00Z6mH8f7GpjSZn5LPO4Bi6WlrG53DqNJOLdGL0bjNL3LdkBvquVCDQ3PExxkZ1F8YdHKmXosYE60t8HL2MZOzkP7b11xQjPk6rHGSuY1ly8gLyl6dqKRg8/Ub2TuLBGen1MFvSgt/oSAm0eg7hOatDm7diNTBqpcHsIZg9UNm6Yw7nU3uzh9mcvX4OcaMsesbtssTHMS9qI7Ncn2qK/4RXVntI3MzQwxtF0lGyBQhLSz42CwYYajAVHjILC6SvWIpubBZkM0k5mLAdN7ffS2rRAlSS7PvrT/LXfwH/nJgY5xEvAgiTbOYvnMzt0GdwlZQbrs5TQifeCD9+rJyz8ZZm/jrEY26i/DwOcDvjv3DKsrJQSsnPql1K6gImFKyBMNxIHK1Vc5ro1Oy1QK36yGRLlJNQwEjQiwQuusieQwiFedirkuM4QtTDCwtx02SiQNYvEDIwSuLL4GqivwRDLX8roa1RrYfUaqd+axFLuKUUlhl+9ZO9PZ7S4047RBVzRObmiS87ONYb4BCEn4400SVmYe1iRy8lCSqaC4J+NHGFCfJH2BINdaHHHyW873NNJS9uMQGcbgj1d6LtZjWSmxQAE6gwyrUX189fwfecWM9xffxxvGhCrK8/MVxHJjRNDOJNMC9SZvqw/1xqIlgZiEjgdrYfT91FHAxqo6vSl0k+igap096rzcBqo6vSl0k+igap096rzcBqo6vSl0k+igap096rzcBqo6vSl0k+igap096rzcBqo6vSl0k+igap096rzcBqo6vSl0k/y//hjMSooe8G7AAAAAElFTkSuQmCC;" parent="1" vertex="1">
          <mxGeometry x="265.62" y="132.99" width="57.77" height="38.73" as="geometry" />
        </mxCell>
        <mxCell id="XGQdO2VJRoyWXTCaJZEM-179" value="z&lt;sub&gt;-i&lt;/sub&gt;" style="text;html=1;align=center;verticalAlign=middle;whiteSpace=wrap;rounded=0;fontFamily=Helvetica;fontSize=12;fontColor=default;resizable=1;" parent="1" vertex="1">
          <mxGeometry x="279.5" y="46" width="30" height="25" as="geometry" />
        </mxCell>
        <mxCell id="XGQdO2VJRoyWXTCaJZEM-181" value="Sample" style="text;html=1;align=center;verticalAlign=middle;whiteSpace=wrap;rounded=0;fontFamily=Helvetica;fontSize=12;fontColor=default;resizable=1;" parent="1" vertex="1">
          <mxGeometry x="290" y="96.25999999999999" width="60" height="30" as="geometry" />
        </mxCell>
        <mxCell id="XGQdO2VJRoyWXTCaJZEM-183" value="a&lt;sub&gt;i&lt;/sub&gt;" style="rounded=1;whiteSpace=wrap;html=1;fillColor=#fae6d4;" parent="1" vertex="1">
          <mxGeometry x="349" y="-4.5" width="60" height="30" as="geometry" />
        </mxCell>
        <mxCell id="XGQdO2VJRoyWXTCaJZEM-185" style="edgeStyle=orthogonalEdgeStyle;rounded=0;orthogonalLoop=1;jettySize=auto;html=1;exitX=0.5;exitY=1;exitDx=0;exitDy=0;entryX=0.193;entryY=-0.005;entryDx=0;entryDy=0;entryPerimeter=0;fontFamily=Helvetica;fontSize=12;fontColor=default;resizable=1;dashed=1;dashPattern=12 12;" parent="1" source="XGQdO2VJRoyWXTCaJZEM-183" target="XGQdO2VJRoyWXTCaJZEM-158" edge="1">
          <mxGeometry relative="1" as="geometry" />
        </mxCell>
        <mxCell id="XGQdO2VJRoyWXTCaJZEM-186" value="a&lt;sub&gt;j&lt;/sub&gt;" style="rounded=1;whiteSpace=wrap;html=1;fillColor=#fae6d4;" parent="1" vertex="1">
          <mxGeometry x="439" y="-4.5" width="60" height="30" as="geometry" />
        </mxCell>
        <mxCell id="XGQdO2VJRoyWXTCaJZEM-187" style="edgeStyle=orthogonalEdgeStyle;rounded=0;orthogonalLoop=1;jettySize=auto;html=1;exitX=0.5;exitY=1;exitDx=0;exitDy=0;entryX=0.794;entryY=0.014;entryDx=0;entryDy=0;entryPerimeter=0;fontFamily=Helvetica;fontSize=12;fontColor=default;resizable=1;dashed=1;dashPattern=12 12;" parent="1" source="XGQdO2VJRoyWXTCaJZEM-186" target="XGQdO2VJRoyWXTCaJZEM-158" edge="1">
          <mxGeometry relative="1" as="geometry" />
        </mxCell>
        <mxCell id="XGQdO2VJRoyWXTCaJZEM-199" value="Training" style="text;html=1;align=center;verticalAlign=middle;whiteSpace=wrap;rounded=0;fontFamily=Helvetica;fontSize=12;fontColor=default;resizable=1;" parent="1" vertex="1">
          <mxGeometry x="249.5" y="206" width="60" height="30" as="geometry" />
        </mxCell>
        <mxCell id="XGQdO2VJRoyWXTCaJZEM-229" style="edgeStyle=orthogonalEdgeStyle;rounded=0;orthogonalLoop=1;jettySize=auto;html=1;exitX=0.25;exitY=0;exitDx=0;exitDy=0;fontFamily=Helvetica;fontSize=12;fontColor=default;resizable=1;entryX=0.734;entryY=0.962;entryDx=0;entryDy=0;entryPerimeter=0;dashed=1;dashPattern=12 12;" parent="1" edge="1">
          <mxGeometry relative="1" as="geometry">
            <mxPoint x="460" y="192.99000000000024" as="sourcePoint" />
            <mxPoint x="460.0999999999999" y="107.8599999999999" as="targetPoint" />
          </mxGeometry>
        </mxCell>
        <mxCell id="XGQdO2VJRoyWXTCaJZEM-231" value="&lt;p style=&quot;line-height: 100%;&quot;&gt;&lt;font style=&quot;font-size: 22px;&quot;&gt;+&lt;/font&gt;&lt;/p&gt;" style="ellipse;whiteSpace=wrap;html=1;aspect=fixed;strokeColor=default;align=center;verticalAlign=middle;fontFamily=Helvetica;fontSize=12;fontColor=default;resizable=1;fillColor=default;strokeWidth=1.5;textOpacity=30;opacity=30;" parent="1" vertex="1">
          <mxGeometry x="476.9999999999998" y="142.25" width="18" height="18" as="geometry" />
        </mxCell>
        <mxCell id="XGQdO2VJRoyWXTCaJZEM-232" style="edgeStyle=orthogonalEdgeStyle;rounded=0;orthogonalLoop=1;jettySize=auto;html=1;exitX=0.5;exitY=0;exitDx=0;exitDy=0;entryX=0.5;entryY=1;entryDx=0;entryDy=0;fontFamily=Helvetica;fontSize=12;fontColor=default;resizable=1;textOpacity=30;opacity=30;" parent="1" source="XGQdO2VJRoyWXTCaJZEM-233" target="XGQdO2VJRoyWXTCaJZEM-239" edge="1">
          <mxGeometry relative="1" as="geometry">
            <mxPoint x="564" y="93" as="targetPoint" />
          </mxGeometry>
        </mxCell>
        <mxCell id="XGQdO2VJRoyWXTCaJZEM-233" value="" style="rounded=1;whiteSpace=wrap;html=1;strokeColor=#efc1b9;align=center;verticalAlign=middle;fontFamily=Helvetica;fontSize=12;resizable=1;fillColor=default;fontColor=#000000;textOpacity=30;" parent="1" vertex="1">
          <mxGeometry x="527" y="127.25999999999999" width="75" height="49.99" as="geometry" />
        </mxCell>
        <mxCell id="XGQdO2VJRoyWXTCaJZEM-234" value="" style="shape=image;verticalLabelPosition=bottom;labelBackgroundColor=default;verticalAlign=top;aspect=fixed;imageAspect=0;image=data:image/png,iVBORw0KGgoAAAANSUhEUgAAAKoAAAByCAYAAADDG0rAAAAMTmlDQ1BJQ0MgUHJvZmlsZQAASImVVwdYU8kWnltSIQQIhCIl9CaISAkgJYQWQHoRRCUkAUKJMSGo2NFFBdcuIljRVRDFtgKy2FBXXVkUu2tZLCisrIsFu/ImBNBlX/nefN/c+e8/Z/4559y5d+4AQO/gS6W5qCYAeZJ8WWxIAGticgqL1AWoQBvoAVtgyRfIpZzo6AgAy1D79/LmBkCU7VVHpdY/+/9r0RKK5AIAkGiI04VyQR7EPwKANwuksnwAiFLIW8zIlyrxOoh1ZNBBiKuVOFOFm5U4XYUvD9jEx3IhfgwAWZ3Pl2UCoNELeVaBIBPq0GG0wFkiFEsg9ofYNy9vmhDiBRDbQhs4J12pz07/Rifzb5rpw5p8fuYwVsUyUMiBYrk0lz/r/0zH/y55uYqhOWxgVc+ShcYqY4Z5e5wzLVyJ1SF+J0mPjIJYGwAUFwsH7JWYmaUITVDZo7YCORfmDDAhHi/PjeMN8rFCfmA4xEYQZ0hyIyMGbYoyxMFKG5g/tFycz4uHWB/iapE8KG7Q5qRsWuzQvDcyZFzOIN/Flw34oNT/oshJ4Kj0Me0sEW9QH3MqzIpPgpgKcWCBODESYg2II+U5ceGDNqmFWdzIIRuZIlYZiyXEMpEkJEClj5VlyIJjB+335MmHYsdOZol5kYP4Sn5WfKgqV9hjAX/AfxgL1iuScBKGdETyiRFDsQhFgUGq2HGySJIQp+JxfWl+QKxqLG4vzY0etMcDRLkhSt4c4nh5QdzQ2IJ8uDhV+nixND86XuUnXpHND4tW+YMfABGACwIBCyhgTQfTQDYQt/U09MA7VU8w4AMZyAQi4DjIDI1IGuiRwGscKAR/QiQC8uFxAQO9IlAA+c8jWCUnHuZUV0eQMdinVMkBTyDOA+EgF94rBpQkwx4kgseQEf/DIz6sAhhDLqzK/n/PD7FfGQ5kIgYZxdCMLPqQJTGIGEgMJQYT7XBD3Bf3xiPg1R9WF5yNew7F8dWe8ITQTnhIuE7oINyeKi6SjfByAuiA+sGD+Un/Nj+4NdR0wwNwH6gOlXEmbggccVc4Dwf3gzO7QZY76LcyK6wR2n+L4JsnNGhHcaagFD2KP8V25EgNew23YRVlrr/Nj8rX9OF8c4d7Rs7P/Sb7QtiGj7TElmKHsXPYKewC1ow1ABZ2AmvEWrFjSjy84h4PrLih2WIH/MmBOiPXzNcnq8yk3LnWudv5k6ovXzQzX/kycqdJZ8nEmVn5LA7cMUQsnkTgNJrl4uziCoBy/1F93l7FDOwrCLP1K7fodwB8TvT39//0lQs7AcBBD/hJOPqVs2XDrUUNgPNHBQpZgYrDlRcC/HLQ4dtnAEyABdzfHIELcAfewB8EgTAQBeJBMpgCvc+C61wGZoA5YCEoBqVgFVgPKsBWsANUg33gEGgAzeAU+BlcBJfBdXAHrp5O8Az0gjfgI4IgJISGMBADxBSxQhwQF4SN+CJBSAQSiyQjaUgmIkEUyBxkEVKKrEEqkO1IDXIQOYqcQi4g7cht5AHSjbxEPqAYqo7qoMaoNToGZaMcNByNRyejmeh0tBBdjK5Ay9EqdC9aj55CL6LX0Q70GdqHAUwNY2JmmCPGxrhYFJaCZWAybB5WgpVhVVgd1gSf81WsA+vB3uNEnIGzcEe4gkPxBFyAT8fn4cvxCrwar8fP4FfxB3gv/oVAIxgRHAheBB5hIiGTMINQTCgj7CIcIZyF71In4Q2RSGQSbYge8F1MJmYTZxOXEzcT9xNPEtuJj4h9JBLJgORA8iFFkfikfFIxaSNpL+kE6Qqpk/SOrEY2JbuQg8kpZAm5iFxG3kM+Tr5Cfkr+SNGkWFG8KFEUIWUWZSVlJ6WJconSSflI1aLaUH2o8dRs6kJqObWOepZ6l/pKTU3NXM1TLUZNrLZArVztgNp5tQdq79W11e3Vueqp6gr1Feq71U+q31Z/RaPRrGn+tBRaPm0FrYZ2mnaf9k6DoeGkwdMQaszXqNSo17ii8ZxOoVvROfQp9EJ6Gf0w/RK9R5Oiaa3J1eRrztOs1DyqeVOzT4uhNVYrSitPa7nWHq0LWl3aJG1r7SBtofZi7R3ap7UfMTCGBYPLEDAWMXYyzjI6dYg6Njo8nWydUp19Om06vbrauq66ibozdSt1j+l2MDGmNZPHzGWuZB5i3mB+0DPW4+iJ9Jbp1eld0XurP0rfX1+kX6K/X/+6/gcDlkGQQY7BaoMGg3uGuKG9YYzhDMMthmcNe0bpjPIeJRhVMurQqN+MUCN7o1ij2UY7jFqN+oxNjEOMpcYbjU8b95gwTfxNsk3WmRw36TZlmPqaik3XmZ4w/YOly+KwclnlrDOsXjMjs1Azhdl2szazj+Y25gnmReb7ze9ZUC3YFhkW6yxaLHotTS0nWM6xrLX8zYpixbbKstpgdc7qrbWNdZL1EusG6y4bfRueTaFNrc1dW5qtn+102yrba3ZEO7Zdjt1mu8v2qL2bfZZ9pf0lB9TB3UHssNmhfTRhtOdoyeiq0Tcd1R05jgWOtY4PnJhOEU5FTg1Oz8dYjkkZs3rMuTFfnN2cc513Ot8Zqz02bGzR2KaxL13sXQQulS7XxtHGBY+bP65x3AtXB1eR6xbXW24MtwluS9xa3D67e7jL3Ovcuz0sPdI8NnncZOuwo9nL2ec9CZ4BnvM9mz3fe7l75Xsd8vrL29E7x3uPd9d4m/Gi8TvHP/Ix9+H7bPfp8GX5pvlu8+3wM/Pj+1X5PfS38Bf67/J/yrHjZHP2cp4HOAfIAo4EvOV6cedyTwZigSGBJYFtQdpBCUEVQfeDzYMzg2uDe0PcQmaHnAwlhIaHrg69yTPmCXg1vN4wj7C5YWfC1cPjwivCH0bYR8gimiagE8ImrJ1wN9IqUhLZEAWieFFro+5F20RPj/4phhgTHVMZ8yR2bOyc2HNxjLipcXvi3sQHxK+Mv5Ngm6BIaEmkJ6Ym1iS+TQpMWpPUMXHMxLkTLyYbJouTG1NIKYkpu1L6JgVNWj+pM9UttTj1xmSbyTMnX5hiOCV3yrGp9Kn8qYfTCGlJaXvSPvGj+FX8vnRe+qb0XgFXsEHwTOgvXCfsFvmI1oieZvhkrMnoyvTJXJvZneWXVZbVI+aKK8QvskOzt2a/zYnK2Z3Tn5uUuz+PnJeWd1SiLcmRnJlmMm3mtHapg7RY2jHda/r66b2ycNkuOSKfLG/M14E/+q0KW8V3igcFvgWVBe9mJM44PFNrpmRm6yz7WctmPS0MLvxhNj5bMLtljtmchXMezOXM3T4PmZc+r2W+xfzF8zsXhCyoXkhdmLPw1yLnojVFrxclLWpabLx4weJH34V8V1usUSwrvrnEe8nWpfhS8dK2ZeOWbVz2pURY8kupc2lZ6aflguW/fD/2+/Lv+1dkrGhb6b5yyyriKsmqG6v9Vlev0VpTuObR2glr69ex1pWse71+6voLZa5lWzdQNyg2dJRHlDdutNy4auOniqyK65UBlfs3GW1atuntZuHmK1v8t9RtNd5auvXDNvG2W9tDttdXWVeV7SDuKNjxZGfiznM/sH+o2WW4q3TX592S3R3VsdVnajxqavYY7VlZi9Yqarv3pu69vC9wX2OdY932/cz9pQfAAcWBPw6mHbxxKPxQy2H24bofrX7cdIRxpKQeqZ9V39uQ1dDRmNzYfjTsaEuTd9ORn5x+2t1s1lx5TPfYyuPU44uP958oPNF3Unqy51TmqUctU1vunJ54+tqZmDNtZ8PPnv85+OfT5zjnTpz3Od98wevC0V/YvzRcdL9Y3+rWeuRXt1+PtLm31V/yuNR42fNyU/v49uNX/K6cuhp49edrvGsXr0deb7+RcOPWzdSbHbeEt7pu595+8VvBbx/vLLhLuFtyT/Ne2X2j+1W/2/2+v8O949iDwAetD+Me3nkkePTssfzxp87FT2hPyp6aPq3pculq7g7uvvzHpD86n0mffewp/lPrz03PbZ//+Jf/X629E3s7X8he9L9c/srg1e7Xrq9b+qL77r/Je/Pxbck7g3fV79nvz31I+vD044xPpE/ln+0+N30J/3K3P6+/X8qX8Qd+BTCgPNpkAPByNwC0ZAAY8NxInaQ6Hw4URHWmHUDgP2HVGXKguANQB//pY3rg381NAA7sBMAa6tNTAYimARDvCdBx44br0Flu4NypLER4NtgW9Dk9Lx38m6I6k37j98gWKFVdwcj2X18LgyaXDPIBAAAAbGVYSWZNTQAqAAAACAAEARoABQAAAAEAAAA+ARsABQAAAAEAAABGASgAAwAAAAEAAgAAh2kABAAAAAEAAABOAAAAAAAAAJAAAAABAAAAkAAAAAEAAqACAAQAAAABAAAAqqADAAQAAAABAAAAcgAAAAAM3wPvAAAACXBIWXMAABYlAAAWJQFJUiTwAAARi0lEQVR4Ae1d+XNU15X+pG61Wt3a9w0QyGA2s++LcTAmhEkmJokrU6n5IfO3zExqqqZSUxN7KonHdkzsMRhsEjCxjTHIxgvYAgRiNQitrX3pltSSWi21NN95GBxUWnEv792+p0rV6tev37vv3K/Pvffcc76TME6BFq0Bk2sg0eTt083TGjA0oIGqgWAJDWigWqKbdCM1UDUGLKEBDVRLdJNupAaqxoAlNGC3RCtN2sjxUAih4QDGx0JsYQISbTYkOpKRwFct4dWABupc9Um3s4Az0N2JodYm9N25iRF/LxKTkmFLcSG9/Em4SsuQnJUDmzNlrlfX50+hAQ3UKRQz2WGxnAMtHnirLqD11HEMNNbCnkyApqYhIcmBkZ4ugEBOmbcQhXt+jJz12+DMLSCIkya7nD42Bw0k6J2p2WlrfHQEPdWX0PDOQfRer0JKcSnSl66Ca/5CODKyeZFxBHt7MFBfi/67NxBob0XmU+tR+pNfImvlWm1dZ6fmKc/SQJ1SNd99ICBt/eQU6g7+Dw+OI2vdFmSu3ggb56OTyeiAH77rl+Gr+hpJGZkoPfDPyN/2DOyu1MlO18dmoQEN1BmUNB4ahYfD/N2XfmNYz/xdP4SbQ/tspL/2Drq+PIux4DDmvfBrFO/aB5vLPZuv6nMmaEDPUSco5JG3Y2MGSO/87l+R9sRSFO59HsnZuY+cMt2btEVLOOQ70XnuNBrffg02uwMFTz8HW7Jzuq/pzybRgPajTqIU4xAXRe3nP0HNH/4T7oWLUfSjn88JpA8u6yqej7xdewnOFDQc+RO8nN+KldYyNw1ooE6hL+/Nq6h97b/hyMlF8b6fccGUNcWZMx92Fc1DPi1paKAf9YdexhAXWuId0DJ7DWigTqKrYK8X9W+9jBG+Fu7+ByTn5E1y1twOuReUI++Zvej/5ibucVE2Ghia2wXi/GwN1AkAkGG5nkO0r/oicnc+BxcBFi7JWLYGeTv3cM76ERqPH9JWdQ6K1UCdoKy2z8+g/aPjyFy1gX7QdUhMDJ+KEhISkL1hG9KWLIfnndchXgEts9NA+Hphdvcz9VmBrg40v3cYNncqcjZs546SI+ztFd+ruLjGgiO4/eK/QXy0WmbWgAbqtzqSAJP6o6/BX3MbOVufQVJ2DsQCRkKc+UUo2n8AvdWXUXf0oJ4CzELJGqjfKqn78gXu4Vdyx2kTUhcuYSRUZF3M6UtXI3XJMniOvYGhzrZZdFV8n6KByv6XaKiWU8cw2u/j/v1TRhRUpGGRaLejmL7ZkV4fbv/u378NFYz0Xa17fQ1U+jNbPj5pBJpkc17qLCiK2JA/ESbi9srfvR++q5Xw3rgy8WP9/u80EPdADfb50P3Vp8YevGvBoikDTf5OZ2H9N3vtZsZcJ+Du7/8DYyPBsF5bpYvFNVCFe6PpxNuMdKpC1vqtcOYVRb1vJUil5Kf/hMGmRnjoFtMyuQbiGqgDzQ0E6UWk0qnvnrfISCWZXE2ROyqeBfe8MiSlZ8Dz7p8xOuiP3M0sfOW4BaoRvnfiEPpuXOXqezkcTB2JldhS3Ch9/lcY7mhDzcGX2AwdBzCxL+IWqH337sDPv6x1m5FWvjRqC6iJHSDvxaqKRZVsAe/FLxH0+SY7La6PxSVQx4JBtJ09yZSRW0wpmcfI+9gHM9vdaSigByDQ2XHfqjIWVst3GohLoPbevWlkj2au3oDUJ5Z9p40Y/2dPTUdq+RJOR65gqIOhgFoeaiDugBoaGkTHF2eYhFcDV8l82J2uh8qI9T9JBGru5qcx3NWGusOvMsBa+AK0iAbiC6h0RxnW9EYVMpatQtri5aZDgZ0B2qmLl6H/znX4mY6t5b4G4gqoo4MD6K78AkPNjcbCxYy5S460DGSt2ojhznY0MWZ1bERHVwlU4weotKZ9925zu/Jrwx1lRmv6wHo6svMMq+qvuYX+Oh2zGldAFWvac6WSNDweuGOwVfoAhLN5TUpLR/qTKw2r2nrmpLaqVFp8WFRaU3/DPXgvfQlXWTlTn803N50I4OTcQqOt/d/c0FY1XoA6ypW+99olzk0bkCq59hbIq3eQYSV98QoMtzejg+kx8R6wor5FpTUd8DSgizn6KaULjM6faL3M+t5ZWIyUkgXovVlFq3rXrM2MSruUB2qIacnCAzXUVGcsoqxEBenIzOaiaikCLU2GtyKePQBqA5XWdLDNg45PPkQyrZMMpVaTlOIFDOYuge9apTHPtlr7w9VepYEaIjmZ7/Z1zk3rkU4Hv51Eu1YTsapuzqsHG+vQQ9davGatKg3UAJ3mbR8cY0ZpPtKXrLQaRo32GvGq88vhICGw78rX8HO+HY+iLFBlldxHh7mwQmesWGOKCKnHBZiDqdtugtV/75Yx3x4fjT+SNWWBOuztQfOJw3BkZiFj+arHxYgpvidWNY2LKgnu9nL4H2xvMUW7otkIJYEqUUf++rvw135Da7pOCaZnB3lZnSVl6L12me6qK3EXWaUkUEf8feQifQ0SjJy5en00f/gRu1dCQiIyl68m1XoWrepFVmXpiNi9zHhh9YDKyHg/V8iy9Zi+Yq0S1vQBcCRYxUmuVUnv9t2+RtKK+MkCUA6o4pKq+/NLdEW5kbtx+4M+VuI1gcyCWWQZtDMU0FddiaC3W4nnms1DKAfUgaZ6sp5cQfrKNVGh5pmNksN5TnJuPpyFJeg4+4ERBI44sapqAZU7UXdf+S0SWTEvf/uecOLDNNcSq5pDjlU7QwF9XFgF+3tN07ZINkQpoA60NDKU7yu6o1YjkRX1VJXkvEIk5xeSy/Xt+2TA/IGqLkoB9faLvzHK5RQ+949K95v4VXO3kMM1NRU+5n+NsACb6qIMUGVrsefCOa7010AoHVWXlIJiOPOL0XjkdQwwMkz1KitKAFXcNDUv/5aLJyeK9h1QHaMPn0+YsaVocA+LCEtwuMqiBFAlqLj7fAUypD5pBHj3zQoA4SVwMrC6kVVcBjk/V9mqWh6oEqBR+8bvudKnNWUJyHiT3G0/MGjcOy98CgkSV1UsD1QhlPBWfs5yO1LtOfxVTMze8S5yZ6WQtrLp6OusCMhgFUU9AJYGqoTy1bMYbgLnaVISJ14ld9tug7W6jZkMqiYBWhqo3ltXjWDizJXrjaE/XoEqVlUKC3uOvalsCKBlgRoKBOD5y1tcPCUhZ8vTrLBni1ecGs+du323Qf/b/P5RpquoF1htWaB2X/2Ke/qXkc4ykBKAEu/iKixlXthKNB9/m+kq9KsqJpYE6oi/n9H7R5DIco1Za7ewFGSSYt3yeI+Tt+1ZJNiTWGqdlJWKla60HlC5qu1kPKbkD2XSb2pPTXu8XlXwW1K3KovlgNrPvg8f43FVEssBNejrQevpE0ZdKKPKXhw5+GcDvNytu4xExrr/+6NRkXA237HCOdYCKq1p22enMdR4z6hZKqx3Wh7VgMFazYWVFK3o5taqKmIpoA6SMrLj3EewZ5Dqhu6YSJQpV6Fjs9dtZcZqNhreegUyn1dBLANU4V1qZmW7IU89Mp5ab5S7UaEDIvEMNm4n5/9gH/rJa+D58JgSu1WWAWrfnRvcKv0MKazFJJX2Erm61TK1BtLIDCN1q1rff0eJTQBLAHV0oB/CvCwLqYyl5JBicpuW6TUg06L8p/ci2NV5311l8QorlgBqJwtEeLkwSCNduLu0jLtQlmj29EiK8KeSBZBSVMrQxw3oqTzH9OrqCN8xspc3fY8HutpJwlthBF2ksXhZogUZ+SLbhVNfXZz/WWs3GTUAGg79L0KsY2BVMTVQZc+6VZzXly+wLtRqWoh5Ma1ZarVOFquaTNKK3J170HfrmqUXVqYGqgxX3V9UkNK8zBj29Vbp3H8qsuhMW/QkHMxabfv4Pfglv8qCYlqgBnu9kPjKQLuHwRZPxbRMuQX79ZEmC19V/vZnWbqoGbVvvoxQMPDI51Z4Y0qgChtfx5cV6KJzX7JKxdUiw5iWx9OA6M7JhVUO66z23biEtnOnH+9CMfyWKYEqyXrtn36AJAZZCG1kPKQ/RxoDUrJIOFYT7Q76Vt9lMmBTpG8Z1uubDqhG0MmZ98jGd9NginZybqUlPBoQHoDcXXsN3tjaN/+I0QHreAFMBdTQcMAIOmn927vIov8vk8x1WsKnAZkCyK5ezuZd8FWdR/Opv1gmG8A0QB0fC8HHHKhmVlR2zV+E7I074j69JHwQ/e5KMgWQ8EhHTgE6Kt5HD7MkrMAIaA6gMnxvsMWDZu5Li1M6m7ymDq5UtURGA868AmSREXC4u51Ea4dZi6vZ9IErsQcqQTrs7UIzo3x6vv7ciFBPK38yMj2kr/pQAxImmb1pF2sCVKHpxCH2gblJgWPOJiZMdC1n/oYWUijKnDR7g1os0Q+RYbJ/Em027vatwkhvDzo/O4OkrDzM2/9zmDUYPaYWNTQ8jM4Ln8DzzkGkch8/b8cenagXRUDb3anIWrOZDNbFaD99nH1hXlqgmAF1PDTKVInzqHvzD/w15yB/53OsYpIaxW7StxINSEJgzqadzF61o/nkEXSzjpUYELNJTIA6Pj5GkH6F2j+9CNlvEjoe4abXEhsNCCtgzpZdCHIa0HTsDYMcOBQMxqYxU9w1+nNULp66L55Hzav/hRDnp/l7fgz3vIVTNE8fjpYG0sqXYpxcXp2ffoT6I6+ijP2USXIPG7kTzCAJ45RoNcTYw+c8qPb1FzFG4tn83ftZTNd6pcmjpa9o30cIkfsYsdbJWAApGz//hX9BDgk+zMCSGDWgSv2ntooPUH/4FcNnl79rH9IXL4t2X+j7zaABmZb1sXR852cfs45sNkoO/AoFZAuUjYJYSlSAKoW7PKf+ihYW0U1iEd08ltZxL1gUy+fW955GAzLI9t+7jS7GArM8IAp/+DxKf/QzFreIHY9CxIHay+zR5pNH0U03VEpZOXK5zyyFErSYXwMDTE2XTZhAaxNyaFUXvPBruFiMLRYSMaCOciu0/fMzaKN/btDIxV/H8ogbjeEkFg+q7/l4Ghju7oSX5Sz7b1UjhQEtxXsPoGDHs1H3d4cdqPeDS6rJD/Uei5Odh421kLLWbIKsKm2sqKfFehoQozPQcI9JlmfpGQghe/MOTgV+wT6N3lZ3+IDKeY2flrOt4kMO8xUY8XmNPKd0btM5OdTLlp0W62pgjB6BAGsE9N64gv7rVfQKFCFn624UPbuf04HSiD/Y9waquJykIFcb00Z6mH8f7GpjSZn5LPO4Bi6WlrG53DqNJOLdGL0bjNL3LdkBvquVCDQ3PExxkZ1F8YdHKmXosYE60t8HL2MZOzkP7b11xQjPk6rHGSuY1ly8gLyl6dqKRg8/Ub2TuLBGen1MFvSgt/oSAm0eg7hOatDm7diNTBqpcHsIZg9UNm6Yw7nU3uzh9mcvX4OcaMsesbtssTHMS9qI7Ncn2qK/4RXVntI3MzQwxtF0lGyBQhLSz42CwYYajAVHjILC6SvWIpubBZkM0k5mLAdN7ffS2rRAlSS7PvrT/LXfwH/nJgY5xEvAgiTbOYvnMzt0GdwlZQbrs5TQifeCD9+rJyz8ZZm/jrEY26i/DwOcDvjv3DKsrJQSsnPql1K6gImFKyBMNxIHK1Vc5ro1Oy1QK36yGRLlJNQwEjQiwQuusieQwiFedirkuM4QtTDCwtx02SiQNYvEDIwSuLL4GqivwRDLX8roa1RrYfUaqd+axFLuKUUlhl+9ZO9PZ7S4047RBVzRObmiS87ONYb4BCEn4400SVmYe1iRy8lCSqaC4J+NHGFCfJH2BINdaHHHyW873NNJS9uMQGcbgj1d6LtZjWSmxQAE6gwyrUX189fwfecWM9xffxxvGhCrK8/MVxHJjRNDOJNMC9SZvqw/1xqIlgZiEjgdrYfT91FHAxqo6vSl0k+igap096rzcBqo6vSl0k+igap096rzcBqo6vSl0k+igap096rzcBqo6vSl0k+igap096rzcBqo6vSl0k+igap096rzcBqo6vSl0k/y//hjMSooe8G7AAAAAElFTkSuQmCC;textOpacity=30;opacity=30;" parent="1" vertex="1">
          <mxGeometry x="535.62" y="133.99" width="57.77" height="38.73" as="geometry" />
        </mxCell>
        <mxCell id="XGQdO2VJRoyWXTCaJZEM-235" value="Sample" style="text;html=1;align=center;verticalAlign=middle;whiteSpace=wrap;rounded=0;fontFamily=Helvetica;fontSize=12;fontColor=default;resizable=1;textOpacity=30;" parent="1" vertex="1">
          <mxGeometry x="560" y="102.25" width="60" height="30" as="geometry" />
        </mxCell>
        <mxCell id="XGQdO2VJRoyWXTCaJZEM-236" style="edgeStyle=orthogonalEdgeStyle;rounded=0;orthogonalLoop=1;jettySize=auto;html=1;exitX=1;exitY=0.5;exitDx=0;exitDy=0;entryX=-0.116;entryY=0.486;entryDx=0;entryDy=0;entryPerimeter=0;fontFamily=Helvetica;fontSize=12;fontColor=default;resizable=1;opacity=30;" parent="1" source="XGQdO2VJRoyWXTCaJZEM-166" target="XGQdO2VJRoyWXTCaJZEM-231" edge="1">
          <mxGeometry relative="1" as="geometry" />
        </mxCell>
        <mxCell id="XGQdO2VJRoyWXTCaJZEM-237" style="edgeStyle=orthogonalEdgeStyle;rounded=0;orthogonalLoop=1;jettySize=auto;html=1;exitX=1;exitY=0.5;exitDx=0;exitDy=0;entryX=-0.037;entryY=0.479;entryDx=0;entryDy=0;entryPerimeter=0;fontFamily=Helvetica;fontSize=12;fontColor=default;resizable=1;textOpacity=30;opacity=30;" parent="1" source="XGQdO2VJRoyWXTCaJZEM-231" target="XGQdO2VJRoyWXTCaJZEM-233" edge="1">
          <mxGeometry relative="1" as="geometry" />
        </mxCell>
        <mxCell id="XGQdO2VJRoyWXTCaJZEM-239" value="z&lt;sub&gt;-j&lt;/sub&gt;" style="text;html=1;align=center;verticalAlign=middle;whiteSpace=wrap;rounded=0;fontFamily=Helvetica;fontSize=12;fontColor=default;resizable=1;textOpacity=30;" parent="1" vertex="1">
          <mxGeometry x="549.5" y="46" width="30" height="25" as="geometry" />
        </mxCell>
        <mxCell id="XGQdO2VJRoyWXTCaJZEM-244" style="edgeStyle=orthogonalEdgeStyle;rounded=0;orthogonalLoop=1;jettySize=auto;html=1;exitX=0.75;exitY=0;exitDx=0;exitDy=0;entryX=0.293;entryY=0.959;entryDx=0;entryDy=0;entryPerimeter=0;fontFamily=Helvetica;fontSize=12;fontColor=default;resizable=1;dashed=1;dashPattern=12 12;" parent="1" edge="1">
          <mxGeometry relative="1" as="geometry">
            <mxPoint x="390" y="192.99" as="sourcePoint" />
            <mxPoint x="389.9499999999998" y="107.76999999999998" as="targetPoint" />
          </mxGeometry>
        </mxCell>
        <mxCell id="XGQdO2VJRoyWXTCaJZEM-245" value="" style="rounded=1;whiteSpace=wrap;html=1;align=center;verticalAlign=middle;fontFamily=Helvetica;fontSize=12;resizable=1;shadow=0;glass=0;arcSize=4;dashed=1;strokeWidth=2;fillColor=#dae8fc;strokeColor=#6c8ebf;opacity=60;" parent="1" vertex="1">
          <mxGeometry x="715.8" y="-22" width="308.5" height="440" as="geometry" />
        </mxCell>
        <mxCell id="XGQdO2VJRoyWXTCaJZEM-246" style="edgeStyle=orthogonalEdgeStyle;rounded=0;orthogonalLoop=1;jettySize=auto;html=1;exitX=0.5;exitY=0;exitDx=0;exitDy=0;entryX=0.5;entryY=1;entryDx=0;entryDy=0;" parent="1" source="XGQdO2VJRoyWXTCaJZEM-248" target="XGQdO2VJRoyWXTCaJZEM-250" edge="1">
          <mxGeometry relative="1" as="geometry" />
        </mxCell>
        <mxCell id="XGQdO2VJRoyWXTCaJZEM-247" style="edgeStyle=orthogonalEdgeStyle;rounded=1;orthogonalLoop=1;jettySize=auto;html=1;entryX=0.75;entryY=1;entryDx=0;entryDy=0;fontFamily=Helvetica;fontSize=12;fontColor=default;resizable=1;curved=0;strokeColor=default;textOpacity=30;opacity=30;" parent="1" target="XGQdO2VJRoyWXTCaJZEM-257" edge="1">
          <mxGeometry relative="1" as="geometry">
            <mxPoint x="934.3" y="331" as="sourcePoint" />
            <Array as="points">
              <mxPoint x="934.3" y="331" />
              <mxPoint x="822.3" y="331" />
            </Array>
          </mxGeometry>
        </mxCell>
        <mxCell id="XGQdO2VJRoyWXTCaJZEM-272" style="edgeStyle=orthogonalEdgeStyle;rounded=0;orthogonalLoop=1;jettySize=auto;html=1;exitX=0;exitY=0.5;exitDx=0;exitDy=0;entryX=1;entryY=0.5;entryDx=0;entryDy=0;fontFamily=Helvetica;fontSize=12;fontColor=default;resizable=1;" parent="1" source="XGQdO2VJRoyWXTCaJZEM-248" target="XGQdO2VJRoyWXTCaJZEM-146" edge="1">
          <mxGeometry relative="1" as="geometry" />
        </mxCell>
        <mxCell id="XGQdO2VJRoyWXTCaJZEM-248" value="MLP" style="rounded=1;whiteSpace=wrap;html=1;fillColor=#ffffd9;" parent="1" vertex="1">
          <mxGeometry x="904.3" y="356" width="60" height="30" as="geometry" />
        </mxCell>
        <mxCell id="XGQdO2VJRoyWXTCaJZEM-249" style="edgeStyle=orthogonalEdgeStyle;rounded=0;orthogonalLoop=1;jettySize=auto;html=1;exitX=0.5;exitY=0;exitDx=0;exitDy=0;entryX=0.5;entryY=1;entryDx=0;entryDy=0;" parent="1" source="XGQdO2VJRoyWXTCaJZEM-250" target="XGQdO2VJRoyWXTCaJZEM-254" edge="1">
          <mxGeometry relative="1" as="geometry">
            <mxPoint x="934.3" y="281" as="targetPoint" />
          </mxGeometry>
        </mxCell>
        <mxCell id="XGQdO2VJRoyWXTCaJZEM-250" value="GRU" style="rounded=1;whiteSpace=wrap;html=1;fillColor=#bfd9ea;strokeColor=#1a7bb7;" parent="1" vertex="1">
          <mxGeometry x="904.7" y="258.25" width="60" height="30" as="geometry" />
        </mxCell>
        <mxCell id="XGQdO2VJRoyWXTCaJZEM-251" value="" style="endArrow=classic;html=1;rounded=0;entryX=0.5;entryY=1;entryDx=0;entryDy=0;" parent="1" source="XGQdO2VJRoyWXTCaJZEM-252" target="XGQdO2VJRoyWXTCaJZEM-248" edge="1">
          <mxGeometry width="50" height="50" relative="1" as="geometry">
            <mxPoint x="934.3" y="481" as="sourcePoint" />
            <mxPoint x="984.3" y="431" as="targetPoint" />
            <Array as="points">
              <mxPoint x="934.3" y="421" />
            </Array>
          </mxGeometry>
        </mxCell>
        <mxCell id="XGQdO2VJRoyWXTCaJZEM-252" value="o&lt;sub&gt;j&lt;/sub&gt;&lt;sup&gt;t&lt;/sup&gt;,a&lt;sub&gt;j&lt;/sub&gt;&lt;sup&gt;t-1&lt;/sup&gt;" style="text;html=1;align=center;verticalAlign=middle;whiteSpace=wrap;rounded=1;fillColor=none;strokeColor=#9673a6;" parent="1" vertex="1">
          <mxGeometry x="899.3" y="442" width="70" height="30" as="geometry" />
        </mxCell>
        <mxCell id="XGQdO2VJRoyWXTCaJZEM-253" style="edgeStyle=orthogonalEdgeStyle;rounded=0;orthogonalLoop=1;jettySize=auto;html=1;exitX=0.5;exitY=0;exitDx=0;exitDy=0;entryX=0.5;entryY=1;entryDx=0;entryDy=0;fontFamily=Helvetica;fontSize=12;fontColor=default;resizable=1;" parent="1" source="XGQdO2VJRoyWXTCaJZEM-254" edge="1">
          <mxGeometry relative="1" as="geometry">
            <mxPoint x="934.3" y="89" as="targetPoint" />
          </mxGeometry>
        </mxCell>
        <mxCell id="XGQdO2VJRoyWXTCaJZEM-254" value="MLP" style="rounded=1;whiteSpace=wrap;html=1;fillColor=#ffffd9;" parent="1" vertex="1">
          <mxGeometry x="904.7" y="132.25" width="60" height="30" as="geometry" />
        </mxCell>
        <mxCell id="XGQdO2VJRoyWXTCaJZEM-255" value="" style="endArrow=classic;html=1;rounded=0;entryX=0;entryY=0.5;entryDx=0;entryDy=0;exitX=1;exitY=0.5;exitDx=0;exitDy=0;" parent="1" target="XGQdO2VJRoyWXTCaJZEM-250" edge="1">
          <mxGeometry width="50" height="50" relative="1" as="geometry">
            <mxPoint x="884.7" y="273.25" as="sourcePoint" />
            <mxPoint x="904.7" y="273.25" as="targetPoint" />
            <Array as="points">
              <mxPoint x="864.7" y="273.25" />
              <mxPoint x="884.7" y="273.25" />
            </Array>
          </mxGeometry>
        </mxCell>
        <mxCell id="XGQdO2VJRoyWXTCaJZEM-256" style="edgeStyle=orthogonalEdgeStyle;rounded=1;orthogonalLoop=1;jettySize=auto;html=1;exitX=0.5;exitY=0;exitDx=0;exitDy=0;entryX=0;entryY=0.5;entryDx=0;entryDy=0;fontFamily=Helvetica;fontSize=12;fontColor=default;resizable=1;curved=0;opacity=30;" parent="1" source="XGQdO2VJRoyWXTCaJZEM-257" target="XGQdO2VJRoyWXTCaJZEM-266" edge="1">
          <mxGeometry relative="1" as="geometry" />
        </mxCell>
        <mxCell id="XGQdO2VJRoyWXTCaJZEM-257" value="Message&lt;br&gt;Receving&lt;br&gt;Module" style="rounded=1;whiteSpace=wrap;html=1;fillColor=#dce1f4;strokeColor=#8c9be6;opacity=30;textOpacity=30;" parent="1" vertex="1">
          <mxGeometry x="754.3" y="232.75" width="90" height="50" as="geometry" />
        </mxCell>
        <mxCell id="XGQdO2VJRoyWXTCaJZEM-258" value="Q&lt;sup&gt;j&lt;/sup&gt;&lt;sub&gt;c&lt;/sub&gt;" style="text;html=1;align=center;verticalAlign=middle;whiteSpace=wrap;rounded=0;opacity=30;textOpacity=30;" parent="1" vertex="1">
          <mxGeometry x="844.3" y="54" width="60" height="30" as="geometry" />
        </mxCell>
        <mxCell id="XGQdO2VJRoyWXTCaJZEM-259" style="edgeStyle=orthogonalEdgeStyle;rounded=0;orthogonalLoop=1;jettySize=auto;html=1;exitX=0.5;exitY=0;exitDx=0;exitDy=0;entryX=0.5;entryY=1;entryDx=0;entryDy=0;fontFamily=Helvetica;fontSize=12;fontColor=default;resizable=1;" parent="1" source="XGQdO2VJRoyWXTCaJZEM-254" target="XGQdO2VJRoyWXTCaJZEM-265" edge="1">
          <mxGeometry relative="1" as="geometry">
            <mxPoint x="934.3" y="136" as="sourcePoint" />
          </mxGeometry>
        </mxCell>
        <mxCell id="XGQdO2VJRoyWXTCaJZEM-260" value="Q&lt;sup&gt;j&lt;/sup&gt;&lt;sub&gt;l&lt;/sub&gt;" style="text;html=1;align=center;verticalAlign=middle;whiteSpace=wrap;rounded=0;" parent="1" vertex="1">
          <mxGeometry x="909.3" y="102.25" width="25" height="30" as="geometry" />
        </mxCell>
        <mxCell id="XGQdO2VJRoyWXTCaJZEM-261" style="edgeStyle=orthogonalEdgeStyle;rounded=0;orthogonalLoop=1;jettySize=auto;html=1;exitX=0.5;exitY=0;exitDx=0;exitDy=0;entryX=0.25;entryY=1;entryDx=0;entryDy=0;fontFamily=Helvetica;fontSize=12;fontColor=default;resizable=1;textOpacity=30;opacity=30;" parent="1" source="XGQdO2VJRoyWXTCaJZEM-262" target="XGQdO2VJRoyWXTCaJZEM-257" edge="1">
          <mxGeometry relative="1" as="geometry" />
        </mxCell>
        <mxCell id="XGQdO2VJRoyWXTCaJZEM-262" value="z&lt;sub&gt;j-&lt;/sub&gt;" style="text;html=1;align=center;verticalAlign=middle;whiteSpace=wrap;rounded=1;fillColor=none;strokeColor=#9673a6;opacity=30;textOpacity=30;" parent="1" vertex="1">
          <mxGeometry x="751.3" y="441" width="51" height="31" as="geometry" />
        </mxCell>
        <mxCell id="XGQdO2VJRoyWXTCaJZEM-263" value="Inference" style="text;html=1;align=center;verticalAlign=middle;whiteSpace=wrap;rounded=0;opacity=30;textOpacity=30;" parent="1" vertex="1">
          <mxGeometry x="696.3" y="236.99" width="50" height="20" as="geometry" />
        </mxCell>
        <mxCell id="XGQdO2VJRoyWXTCaJZEM-264" value="Agent j" style="text;html=1;align=center;verticalAlign=middle;whiteSpace=wrap;rounded=0;fontFamily=Helvetica;fontSize=12;fontColor=default;resizable=1;" parent="1" vertex="1">
          <mxGeometry x="964.3" y="-12" width="60" height="30" as="geometry" />
        </mxCell>
        <mxCell id="XGQdO2VJRoyWXTCaJZEM-276" style="edgeStyle=orthogonalEdgeStyle;rounded=1;orthogonalLoop=1;jettySize=auto;html=1;exitX=0.5;exitY=0;exitDx=0;exitDy=0;entryX=1;entryY=0.5;entryDx=0;entryDy=0;fontFamily=Helvetica;fontSize=12;fontColor=default;resizable=1;curved=0;" parent="1" source="XGQdO2VJRoyWXTCaJZEM-265" target="XGQdO2VJRoyWXTCaJZEM-18" edge="1">
          <mxGeometry relative="1" as="geometry" />
        </mxCell>
        <mxCell id="XGQdO2VJRoyWXTCaJZEM-277" style="edgeStyle=orthogonalEdgeStyle;rounded=0;orthogonalLoop=1;jettySize=auto;html=1;exitX=0;exitY=0.5;exitDx=0;exitDy=0;entryX=1;entryY=0.5;entryDx=0;entryDy=0;fontFamily=Helvetica;fontSize=12;fontColor=default;resizable=1;" parent="1" source="XGQdO2VJRoyWXTCaJZEM-265" target="XGQdO2VJRoyWXTCaJZEM-186" edge="1">
          <mxGeometry relative="1" as="geometry" />
        </mxCell>
        <mxCell id="XGQdO2VJRoyWXTCaJZEM-265" value="Q&lt;sub&gt;i&lt;/sub&gt;" style="rounded=1;whiteSpace=wrap;html=1;strokeColor=#9673a6;align=center;verticalAlign=middle;fontFamily=Helvetica;fontSize=12;fontColor=default;resizable=1;fillColor=default;" parent="1" vertex="1">
          <mxGeometry x="909.3" y="-7" width="50" height="35" as="geometry" />
        </mxCell>
        <mxCell id="XGQdO2VJRoyWXTCaJZEM-266" value="&lt;p style=&quot;line-height: 100%;&quot;&gt;&lt;font style=&quot;font-size: 22px;&quot;&gt;+&lt;/font&gt;&lt;/p&gt;" style="ellipse;whiteSpace=wrap;html=1;aspect=fixed;strokeColor=default;align=center;verticalAlign=middle;fontFamily=Helvetica;fontSize=12;fontColor=default;resizable=1;fillColor=default;strokeWidth=1.5;" parent="1" vertex="1">
          <mxGeometry x="925.7" y="71" width="18" height="18" as="geometry" />
        </mxCell>
        <mxCell id="XGQdO2VJRoyWXTCaJZEM-267" style="edgeStyle=orthogonalEdgeStyle;rounded=0;orthogonalLoop=1;jettySize=auto;html=1;exitX=1;exitY=0.5;exitDx=0;exitDy=0;entryX=0;entryY=0.5;entryDx=0;entryDy=0;fontFamily=Helvetica;fontSize=12;fontColor=default;resizable=1;opacity=30;textOpacity=30;" parent="1" source="XGQdO2VJRoyWXTCaJZEM-268" target="XGQdO2VJRoyWXTCaJZEM-257" edge="1">
          <mxGeometry relative="1" as="geometry" />
        </mxCell>
        <mxCell id="XGQdO2VJRoyWXTCaJZEM-268" value="m&lt;sub&gt;-j,t&lt;/sub&gt;&lt;sup&gt;&lt;font style=&quot;font-size: 7px;&quot;&gt;&lt;b&gt;(1)&lt;/b&gt;&lt;/font&gt;&lt;/sup&gt;" style="text;html=1;align=center;verticalAlign=middle;whiteSpace=wrap;rounded=1;fillColor=none;strokeColor=#9673a6;textOpacity=30;" parent="1" vertex="1">
          <mxGeometry x="640.3" y="242.75" width="51" height="30" as="geometry" />
        </mxCell>
        <mxCell id="XGQdO2VJRoyWXTCaJZEM-269" value="&lt;span style=&quot;forced-color-adjust: none; color: rgb(0, 0, 0); font-family: Helvetica; font-size: 12px; font-style: normal; font-variant-ligatures: normal; font-variant-caps: normal; font-weight: 400; letter-spacing: normal; orphans: 2; text-align: center; text-indent: 0px; text-transform: none; widows: 2; word-spacing: 0px; -webkit-text-stroke-width: 0px; white-space: normal; text-decoration-thickness: initial; text-decoration-style: initial; text-decoration-color: initial; background-color: rgb(251, 251, 251); float: none; display: inline !important;&quot;&gt;τ&lt;/span&gt;&lt;sub style=&quot;forced-color-adjust: none; color: rgb(0, 0, 0); font-family: Helvetica; font-style: normal; font-variant-ligatures: normal; font-variant-caps: normal; font-weight: 400; letter-spacing: normal; orphans: 2; text-align: center; text-indent: 0px; text-transform: none; widows: 2; word-spacing: 0px; -webkit-text-stroke-width: 0px; white-space: normal; text-decoration-thickness: initial; text-decoration-style: initial; text-decoration-color: initial; background-color: rgb(251, 251, 251);&quot;&gt;j&lt;/sub&gt;&lt;sup style=&quot;forced-color-adjust: none; color: rgb(0, 0, 0); font-family: Helvetica; font-style: normal; font-variant-ligatures: normal; font-variant-caps: normal; font-weight: 400; letter-spacing: normal; orphans: 2; text-align: center; text-indent: 0px; text-transform: none; widows: 2; word-spacing: 0px; -webkit-text-stroke-width: 0px; white-space: normal; text-decoration-thickness: initial; text-decoration-style: initial; text-decoration-color: initial; background-color: rgb(251, 251, 251);&quot;&gt;t-1&lt;/sup&gt;" style="text;whiteSpace=wrap;html=1;fontFamily=Helvetica;fontSize=12;fontColor=default;resizable=1;" parent="1" vertex="1">
          <mxGeometry x="864.7" y="247.75" width="50" height="40" as="geometry" />
        </mxCell>
        <mxCell id="XGQdO2VJRoyWXTCaJZEM-270" value="τ&lt;sub&gt;j&lt;/sub&gt;&lt;sup&gt;t&lt;/sup&gt;" style="text;html=1;align=center;verticalAlign=middle;whiteSpace=wrap;rounded=0;" parent="1" vertex="1">
          <mxGeometry x="979.7" y="250.75" width="20" height="25" as="geometry" />
        </mxCell>
        <mxCell id="XGQdO2VJRoyWXTCaJZEM-271" style="edgeStyle=orthogonalEdgeStyle;rounded=0;orthogonalLoop=1;jettySize=auto;html=1;exitX=1;exitY=0.5;exitDx=0;exitDy=0;entryX=0.776;entryY=0.679;entryDx=0;entryDy=0;entryPerimeter=0;fontFamily=Helvetica;fontSize=12;fontColor=default;resizable=1;" parent="1" source="XGQdO2VJRoyWXTCaJZEM-250" edge="1">
          <mxGeometry relative="1" as="geometry">
            <mxPoint x="973.7" y="273.25" as="sourcePoint" />
            <mxPoint x="1003.8360000000002" y="273.6399999999999" as="targetPoint" />
          </mxGeometry>
        </mxCell>
        <mxCell id="XGQdO2VJRoyWXTCaJZEM-278" style="edgeStyle=orthogonalEdgeStyle;rounded=1;orthogonalLoop=1;jettySize=auto;html=1;exitX=1;exitY=0.5;exitDx=0;exitDy=0;entryX=0.25;entryY=0;entryDx=0;entryDy=0;fontFamily=Helvetica;fontSize=12;fontColor=default;resizable=1;dashed=1;dashPattern=12 12;curved=0;opacity=30;" parent="1" source="XGQdO2VJRoyWXTCaJZEM-153" target="XGQdO2VJRoyWXTCaJZEM-257" edge="1">
          <mxGeometry relative="1" as="geometry" />
        </mxCell>
        <mxCell id="XGQdO2VJRoyWXTCaJZEM-280" value="Training" style="text;html=1;align=center;verticalAlign=middle;whiteSpace=wrap;rounded=0;fontFamily=Helvetica;fontSize=12;fontColor=default;resizable=1;textOpacity=30;" parent="1" vertex="1">
          <mxGeometry x="542" y="202.75" width="60" height="30" as="geometry" />
        </mxCell>
        <mxCell id="XGQdO2VJRoyWXTCaJZEM-281" value="N(0,1)" style="text;html=1;align=center;verticalAlign=middle;whiteSpace=wrap;rounded=0;fontFamily=Helvetica;fontSize=12;fontColor=default;resizable=1;" parent="1" vertex="1">
          <mxGeometry x="265.62" y="171.72" width="60" height="30" as="geometry" />
        </mxCell>
        <mxCell id="XGQdO2VJRoyWXTCaJZEM-282" value="N(0,1)" style="text;html=1;align=center;verticalAlign=middle;whiteSpace=wrap;rounded=0;fontFamily=Helvetica;fontSize=12;fontColor=default;resizable=1;textOpacity=30;" parent="1" vertex="1">
          <mxGeometry x="535.62" y="172.75000000000003" width="60" height="30" as="geometry" />
        </mxCell>
        <mxCell id="XGQdO2VJRoyWXTCaJZEM-284" value="TD l&lt;span style=&quot;background-color: initial;&quot;&gt;oss&lt;/span&gt;" style="rounded=1;whiteSpace=wrap;html=1;fillColor=#e51400;strokeColor=#B20000;fontColor=#ff0000;opacity=50;" parent="1" vertex="1">
          <mxGeometry x="527" y="-182" width="63" height="30" as="geometry" />
        </mxCell>
        <mxCell id="XGQdO2VJRoyWXTCaJZEM-286" value="IB l&lt;span style=&quot;background-color: initial;&quot;&gt;oss&lt;/span&gt;" style="rounded=1;whiteSpace=wrap;html=1;fillColor=#e51400;strokeColor=#B20000;fontColor=#ff0000;opacity=50;" parent="1" vertex="1">
          <mxGeometry x="640.3" y="79" width="63" height="30" as="geometry" />
        </mxCell>
        <mxCell id="XGQdO2VJRoyWXTCaJZEM-288" value="GM l&lt;span style=&quot;background-color: initial;&quot;&gt;oss&lt;/span&gt;" style="rounded=1;whiteSpace=wrap;html=1;fillColor=#e51400;strokeColor=#B20000;fontColor=#ff0000;opacity=50;" parent="1" vertex="1">
          <mxGeometry x="-50" y="368" width="63" height="30" as="geometry" />
        </mxCell>
        <mxCell id="vlofUZYDkbNJWHW3qK4C-3" value="m&lt;sub&gt;i&lt;/sub&gt;&lt;sup&gt;&lt;font style=&quot;font-size: 7px;&quot;&gt;&lt;b&gt;(...)&lt;/b&gt;&lt;/font&gt;&lt;/sup&gt;" style="rounded=1;whiteSpace=wrap;html=1;fillColor=#fae6d4;" parent="1" vertex="1">
          <mxGeometry x="349" y="275.75" width="60" height="30" as="geometry" />
        </mxCell>
        <mxCell id="vlofUZYDkbNJWHW3qK4C-4" value="m&lt;sub&gt;j&lt;/sub&gt;&lt;sup&gt;&lt;font style=&quot;font-size: 7px;&quot;&gt;&lt;b&gt;(...)&lt;/b&gt;&lt;/font&gt;&lt;/sup&gt;" style="rounded=1;whiteSpace=wrap;html=1;fillColor=#fae6d4;" parent="1" vertex="1">
          <mxGeometry x="439" y="275.75" width="60" height="30" as="geometry" />
        </mxCell>
        <mxCell id="vlofUZYDkbNJWHW3qK4C-5" value="Compression" style="text;html=1;align=center;verticalAlign=middle;whiteSpace=wrap;rounded=0;" parent="1" vertex="1">
          <mxGeometry x="396" y="242.75" width="60" height="30" as="geometry" />
        </mxCell>
      </root>
    </mxGraphModel>
  </diagram>
</mxfile>
